<?xml version="1.0" encoding="UTF-8" standalone="no"?><!DOCTYPE svg PUBLIC "-//W3C//DTD SVG 1.1//EN" "http://www.w3.org/Graphics/SVG/1.1/DTD/svg11.dtd"><svg width="100%" height="100%" viewBox="0 0 763 178" version="1.1" xmlns="http://www.w3.org/2000/svg" xmlns:xlink="http://www.w3.org/1999/xlink" xml:space="preserve" xmlns:serif="http://www.serif.com/" style="fill-rule:evenodd;clip-rule:evenodd;stroke-linejoin:round;stroke-miterlimit:2;"><g id="Artboard1"><path d="M180.548,92.393c14.899,-6.183 20.88,-16.623 20.88,-36.794l0,-42.266l6.385,-5.575l0,-0.203l-28.279,0l0,0.203l6.386,5.575l0,49.767c0,12.163 -1.723,21.184 -5.575,29.191l0.203,0.102Zm107.237,-16.623c10.947,0 17.535,-6.082 17.535,-15.204c0,-8.514 -5.575,-12.264 -12.771,-16.724c-7.703,-4.663 -11.656,-7.095 -11.656,-11.555c0,-3.953 2.128,-6.082 5.676,-6.082c3.953,0 7.703,2.534 15.913,17.637l0.203,0l0,-19.968l-5.879,3.649c-2.331,-1.723 -5.879,-3.142 -10.339,-3.142c-10.744,0 -16.724,5.777 -16.724,14.393c0,8.717 5.068,12.67 11.758,16.623c8.21,4.764 12.061,7.399 12.061,11.96c0,4.46 -2.432,6.588 -5.98,6.588c-4.561,0 -8.717,-2.635 -17.332,-19.055l-0.203,0l0,21.387l6.487,-3.649c2.94,2.027 6.893,3.142 11.251,3.142Zm-51.693,0.203c16.42,0 25.745,-9.832 25.745,-26.354c0,-16.927 -7.805,-25.339 -24.123,-25.339c-16.319,0 -25.847,9.426 -25.847,26.251c0,16.927 7.906,25.442 24.225,25.442Zm100.852,-1.724l-5.676,-4.966l0,-33.753c2.432,-2.229 4.966,-3.243 8.108,-3.243c5.474,0 8.21,2.838 8.21,11.555l0,25.441l-5.676,4.966l0,0.203l26.252,0l0,-0.203l-5.676,-4.966l0,-27.367c0,-11.96 -4.46,-17.636 -14.494,-17.636c-7.399,0 -12.771,4.257 -16.724,10.034l0,-34.158l-22.097,6.791l0,0.203l7.197,4.662l0,57.471l-5.575,4.966l0,0.203l26.151,0l0,-0.203Zm-109.772,-24.224c0,-16.826 4.46,-23.82 9.933,-23.82c5.474,0 9.427,6.893 9.427,23.82c0,17.028 -4.46,23.92 -9.832,23.92c-5.473,0 -9.528,-6.791 -9.528,-23.92Z" style="fill:#53565a;fill-rule:nonzero;"/><path d="M468.71,177.128c10.947,0 17.535,-6.082 17.535,-15.204c0,-8.514 -5.575,-12.264 -12.771,-16.724c-7.704,-4.663 -11.657,-7.095 -11.657,-11.555c0,-3.953 2.129,-6.081 5.677,-6.081c3.953,0 7.703,2.533 15.913,17.636l0.203,0l0,-19.968l-5.879,3.649c-2.331,-1.723 -5.879,-3.142 -10.339,-3.142c-10.744,0 -16.724,5.778 -16.724,14.393c0,8.717 5.068,12.67 11.758,16.623c8.21,4.764 12.061,7.399 12.061,11.96c0,4.46 -2.432,6.588 -5.98,6.588c-4.561,0 -8.717,-2.635 -17.332,-19.055l-0.203,0l0,21.387l6.487,-3.649c2.939,2.027 6.892,3.142 11.251,3.142Zm218.123,0.203c8.616,0 13.582,-3.751 15.001,-12.163l-0.101,-0.203c-1.825,2.027 -4.561,3.547 -7.805,3.547c-4.358,0 -6.081,-2.128 -6.081,-8.919l0,-25.745l12.67,0l0.709,-6.791l-13.379,0l0,-16.724l-0.203,0l-13.481,16.42l-8.615,1.723l-0.71,5.372l8.008,0l0,28.279c0,9.832 4.865,15.204 13.987,15.204Zm-475.067,0c11.656,0 20.475,-6.487 22.907,-16.826l-0.101,-0.101c-4.561,4.155 -10.44,6.284 -17.332,6.284c-13.278,0 -20.576,-8.109 -20.576,-26.049c0,-20.475 7.5,-31.32 16.217,-31.32c5.676,0 9.832,2.433 19.461,23.312l0.203,0l0,-25.947l-7.906,3.851c-2.94,-1.926 -6.893,-3.142 -11.454,-3.142c-20.677,0 -32.536,14.9 -32.536,35.577c0,21.387 10.237,34.361 31.117,34.361Zm52.808,0c16.42,0 25.745,-9.832 25.745,-26.354c0,-16.927 -7.805,-25.339 -24.123,-25.339c-16.319,0 -25.847,9.426 -25.847,26.252c0,16.927 7.906,25.441 24.225,25.441Zm327.185,0c16.42,0 25.745,-9.832 25.745,-26.354c0,-16.927 -7.804,-25.339 -24.123,-25.339c-16.319,0 -25.847,9.426 -25.847,26.252c0,16.927 7.906,25.441 24.225,25.441Zm-45.409,-1.217l13.988,-40.442l6.791,-8.413l0,-0.202l-17.637,0l0,0.202c8.312,8.312 8.312,8.312 7.197,11.555l-7.703,23.009l-11.859,-36.084l-6.893,1.318l-11.453,34.462l-8.92,-29.192l6.487,-5.068l0,-0.202l-26.86,0l0,0.202l4.054,5.068l16.623,44.598l6.386,-0.912l11.656,-34.969l11.859,35.881l6.284,-0.811Zm-163.694,-0.506l-5.575,-4.967l0,-45.611l-21.893,6.588l0,0.203l6.892,4.662l0,34.158l-5.574,4.967l0,0.202l26.15,0l0,-0.202Zm-60.916,0l-5.575,-4.967l0,-69.127l-21.893,6.791l-0.102,0.203l6.994,4.663l0,57.47l-5.575,4.967l0,0.202l26.151,0l0,-0.202Zm30.103,0l-5.574,-4.967l0,-69.127l-21.894,6.791l-0.101,0.203l6.993,4.663l0,57.47l-5.574,4.967l0,0.202l26.15,0l0,-0.202Zm300.528,0l-8.311,-5.372l0,-30.509c1.52,-2.129 3.345,-3.143 5.98,-3.143c3.345,0 5.068,2.636 5.372,7.096l0.101,0c4.967,-1.318 8.109,-5.271 8.109,-10.542c0,-4.966 -2.534,-7.602 -6.892,-7.602c-5.778,0 -9.427,4.764 -13.177,13.582l0.203,-14.393l-21.59,6.69l0,0.203l6.893,4.865l0,34.158l-5.575,4.967l0,0.202l28.887,0l0,-0.202Zm-239.003,0l-5.575,-4.967l0,-33.752c2.332,-2.23 4.967,-3.244 8.109,-3.244c5.474,0 8.109,2.838 8.109,11.555l0,25.441l-5.575,4.967l0,0.202l26.151,0l0,-0.202l-5.575,-4.967l0,-27.367c0,-11.96 -4.46,-17.636 -14.596,-17.636c-7.602,0 -13.176,4.662 -17.129,10.744l0.202,-11.352l-21.285,6.385l-0.101,0.203l6.689,4.865l0,34.158l-5.574,4.967l0,0.202l26.15,0l0,-0.202Zm318.066,0l-5.676,-4.967l0,-33.752c2.432,-2.23 4.966,-3.244 8.108,-3.244c5.474,0 8.21,2.838 8.21,11.555l0,25.441l-5.676,4.967l0,0.202l26.252,0l0,-0.202l-5.676,-4.967l0,-27.367c0,-11.96 -4.46,-17.636 -14.494,-17.636c-7.399,0 -12.772,4.257 -16.724,10.034l0,-34.158l-22.097,6.791l0,0.203l7.197,4.663l0,57.47l-5.575,4.967l0,0.202l26.151,0l0,-0.202Zm-475.78,-24.225c0,-16.826 4.46,-23.819 9.933,-23.819c5.474,0 9.427,6.892 9.427,23.819c0,17.028 -4.46,23.92 -9.832,23.92c-5.473,0 -9.528,-6.791 -9.528,-23.92Zm327.185,0c0,-16.826 4.46,-23.819 9.934,-23.819c5.473,0 9.426,6.892 9.426,23.819c0,17.028 -4.46,23.92 -9.832,23.92c-5.473,0 -9.528,-6.791 -9.528,-23.92Zm-213.765,-31.928c4.359,0 7.906,-3.446 7.906,-7.906c0,-4.561 -3.547,-8.008 -7.906,-8.008c-4.561,0 -8.007,3.447 -8.007,8.008c0,4.46 3.446,7.906 8.007,7.906Z" style="fill:#53565a;fill-rule:nonzero;"/><path d="M24.551,31.574l0,120.094l36.029,0l0,24.019l-60.047,0l0,-168.132l60.047,0l0,24.019l-36.029,0Z" style="fill:#a7a8aa;"/><path d="M144.646,175.687l-60.048,0l0,-24.019l36.029,0l0,-120.094l-36.029,0l0,-24.019l60.048,0l0,168.132Z" style="fill:#ffd100;"/></g></svg>