<?xml version="1.0" encoding="UTF-8" standalone="no"?><!DOCTYPE svg PUBLIC "-//W3C//DTD SVG 1.1//EN" "http://www.w3.org/Graphics/SVG/1.1/DTD/svg11.dtd"><svg width="100%" height="100%" viewBox="0 0 1280 720" version="1.1" xmlns="http://www.w3.org/2000/svg" xmlns:xlink="http://www.w3.org/1999/xlink" xml:space="preserve" xmlns:serif="http://www.serif.com/" style="fill-rule:evenodd;clip-rule:evenodd;stroke-linejoin:round;stroke-miterlimit:2;"><g><path d="M169.687,722.389l78.138,-0l0,-65.309l53.647,-0l0,-68.225l-53.647,-0l0,-267.069l-64.143,0l-183.682,284.562l-0,50.732l169.687,-0l0,65.309Zm-83.385,-129.452l89.217,-143.448l-0,143.448l-89.217,-0Z" style="fill:#fcfcfc;fill-rule:nonzero;"/><path d="M454.249,650.082l0,-1.166l75.806,-78.138c51.897,-53.647 66.475,-89.217 66.475,-134.7c0,-74.639 -60.644,-118.956 -127.12,-118.956c-67.058,-0 -109.626,33.237 -132.951,75.805l57.146,40.818c17.493,-29.156 41.401,-43.151 69.391,-43.151c31.488,0 53.647,23.325 53.647,54.23c-0,32.072 -21.575,59.479 -53.647,93.883l-124.787,131.784l1.166,51.898l261.237,-0l-0,-72.307l-146.363,0Z" style="fill:#fcfcfc;fill-rule:nonzero;"/></g><g><path d="M1133.89,602.503l3.515,-19.862c-1.145,-0.409 -2.289,-0.654 -3.515,-0.654c-1.144,0 -2.37,0.245 -3.76,0.654l-3.515,20.026l-17.491,0.408l25.42,-36.291c-1.553,-0.572 -3.351,-0.899 -5.068,-0.899c-1.798,-0 -3.596,0.327 -4.904,0.899l-3.106,7.847l-18.473,28.526c-0.245,0.899 -0.327,2.043 -0.327,3.106c0,0.49 0,0.981 0.082,1.471l22.968,0l-2.942,16.511c1.308,0.245 2.452,0.327 3.678,0.327c1.144,0 2.37,-0.082 3.596,-0.327l2.943,-16.511l9.236,0c0.491,-1.471 1.063,-4.087 1.226,-5.394l-9.563,0.163Z" style="fill:#0f171f;fill-rule:nonzero;"/><path d="M1172.8,617.951l-20.516,0.573c12.587,-8.665 31.714,-23.622 31.714,-38.499c-0,-8.01 -4.577,-14.222 -13.732,-14.222c-7.111,0 -13.487,3.106 -17.083,6.376c-0.736,3.514 -0.899,5.149 -1.308,8.909c0.736,1.144 2.371,1.635 4.087,1.635c0.491,-0 0.899,-0 1.308,-0.082l2.779,-9.073c2.452,-1.798 5.476,-2.534 8.582,-2.534c5.068,0 7.847,3.188 7.847,8.828c0,13.65 -13.405,24.276 -29.67,37.19c-1.39,1.145 -2.78,2.289 -4.251,3.433c0.409,1.472 1.145,2.534 2.534,3.515l33.267,0c1.308,-5.231 1.717,-7.111 2.207,-12.506c-0.736,-1.144 -2.289,-1.635 -4.005,-1.635c-0.409,0 -0.817,0 -1.226,0.082l-2.534,8.01Z" style="fill:#0f171f;fill-rule:nonzero;"/></g></svg>