<?xml version="1.0" encoding="UTF-8" standalone="no"?><!DOCTYPE svg PUBLIC "-//W3C//DTD SVG 1.1//EN" "http://www.w3.org/Graphics/SVG/1.1/DTD/svg11.dtd"><svg width="100%" height="100%" viewBox="0 0 1280 720" version="1.1" xmlns="http://www.w3.org/2000/svg" xmlns:xlink="http://www.w3.org/1999/xlink" xml:space="preserve" xmlns:serif="http://www.serif.com/" style="fill-rule:evenodd;clip-rule:evenodd;stroke-linejoin:round;stroke-miterlimit:2;"><path d="M1082.45,660l24.941,0l0,-20.846l17.124,-0l0,-21.777l-17.124,-0l0,-85.247l-20.474,-0l-58.63,90.83l-0,16.194l54.163,-0l0,20.846Zm90.831,-23.08l-0,-0.372l24.196,-24.941c16.566,-17.124 21.219,-28.478 21.219,-42.996c0,-23.824 -19.357,-37.97 -40.576,-37.97c-21.405,-0 -34.992,10.609 -42.437,24.197l18.24,13.029c5.584,-9.307 13.216,-13.774 22.15,-13.774c10.051,0 17.124,7.445 17.124,17.31c-0,10.237 -6.887,18.985 -17.124,29.967l-39.832,42.065l0.373,16.565l83.385,0l0,-23.08l-46.718,0Zm-117.447,-18.24l28.478,-45.788l-0,45.788l-28.478,-0Z" style="fill:#ffd100;fill-rule:nonzero;"/></svg>