<svg width="100%" height="auto" viewBox="0 0 259 48" version="1.1" xmlns="http://www.w3.org/2000/svg"
  style="fill-rule:evenodd;clip-rule:evenodd;stroke-linejoin:round;stroke-miterlimit:2;">
  <g>
    <g>
      <path
        d="M53.609,36.496c-0.583,-0 -1.027,-0.076 -1.331,-0.228c-0.304,-0.152 -0.456,-0.419 -0.456,-0.798c0,-0.279 0.114,-0.507 0.342,-0.685c0.228,-0.177 0.475,-0.348 0.741,-0.513c0.266,-0.165 0.507,-0.367 0.722,-0.608c0.216,-0.241 0.324,-0.551 0.324,-0.932l-0,-18.359c-0,-0.38 -0.108,-0.685 -0.324,-0.913c-0.215,-0.228 -0.456,-0.43 -0.722,-0.608c-0.266,-0.177 -0.513,-0.355 -0.741,-0.532c-0.228,-0.177 -0.342,-0.405 -0.342,-0.684c0,-0.38 0.152,-0.646 0.456,-0.798c0.304,-0.153 0.748,-0.228 1.331,-0.228l8.476,-0c2.103,-0 4.01,0.336 5.721,1.007c1.71,0.671 3.167,1.609 4.371,2.813c1.204,1.204 2.129,2.629 2.775,4.276c0.647,1.648 0.97,3.447 0.97,5.398c-0,2.002 -0.336,3.776 -1.008,5.322c-0.671,1.545 -1.583,2.838 -2.737,3.877c-1.153,1.039 -2.521,1.831 -4.105,2.375c-1.584,0.546 -3.288,0.818 -5.112,0.818l-9.351,-0Zm8.59,-2.167c1.115,0 2.198,-0.177 3.25,-0.532c1.052,-0.355 1.983,-0.918 2.794,-1.692c0.811,-0.772 1.464,-1.767 1.958,-2.983c0.494,-1.217 0.741,-2.687 0.741,-4.41c-0,-1.901 -0.26,-3.586 -0.779,-5.056c-0.52,-1.469 -1.223,-2.717 -2.11,-3.744c-0.887,-1.026 -1.907,-1.805 -3.06,-2.338c-1.153,-0.531 -2.375,-0.798 -3.668,-0.798l-1.407,0c-0.963,0 -1.444,0.596 -1.444,1.787l-0,18.018c-0,1.165 0.507,1.748 1.52,1.748l2.205,0Z"
        style="fill:#002633;fill-rule:nonzero;"></path>
      <path
        d="M94.036,30.87c0.229,0 0.418,0.076 0.571,0.228c0.151,0.152 0.228,0.368 0.228,0.647c-0,0.329 -0.09,0.658 -0.267,0.987c-0.532,1.217 -1.438,2.244 -2.718,3.08c-1.279,0.836 -2.793,1.254 -4.542,1.254c-1.521,-0 -2.895,-0.241 -4.125,-0.722c-1.228,-0.482 -2.28,-1.153 -3.154,-2.015c-0.875,-0.862 -1.553,-1.894 -2.034,-3.098c-0.482,-1.204 -0.722,-2.54 -0.722,-4.01c-0,-1.495 0.24,-2.864 0.722,-4.105c0.481,-1.242 1.147,-2.319 1.996,-3.231c0.849,-0.913 1.869,-1.622 3.06,-2.129c1.191,-0.507 2.496,-0.76 3.915,-0.76c1.293,-0 2.427,0.19 3.402,0.57c0.975,0.38 1.793,0.899 2.452,1.558c0.659,0.659 1.159,1.445 1.502,2.357c0.342,0.913 0.513,1.9 0.513,2.965c-0,0.811 -0.191,1.4 -0.57,1.767c-0.381,0.368 -1.002,0.552 -1.863,0.552l-10.568,-0c0.101,1.014 0.329,1.938 0.684,2.775c0.356,0.836 0.818,1.552 1.388,2.148c0.57,0.595 1.242,1.057 2.015,1.387c0.772,0.329 1.615,0.494 2.527,0.494c0.963,-0 1.794,-0.184 2.49,-0.551c0.697,-0.367 1.388,-0.906 2.072,-1.616c0.355,-0.355 0.697,-0.532 1.026,-0.532Zm-7.602,-11.974c-1.268,0 -2.325,0.545 -3.174,1.635c-0.849,1.089 -1.337,2.572 -1.464,4.447l8.401,0c0.051,-0.127 0.082,-0.304 0.095,-0.532c0.013,-0.228 0.019,-0.418 0.019,-0.57c-0,-1.521 -0.304,-2.73 -0.912,-3.63c-0.609,-0.9 -1.597,-1.35 -2.965,-1.35Z"
        style="fill:#002633;fill-rule:nonzero;"></path>
      <path
        d="M97.61,36.496c-1.167,-0 -1.749,-0.329 -1.749,-0.989c-0,-0.278 0.114,-0.5 0.342,-0.665c0.228,-0.164 0.475,-0.335 0.741,-0.513c0.266,-0.177 0.507,-0.373 0.723,-0.589c0.215,-0.216 0.322,-0.513 0.322,-0.894l0,-10.68c0.026,-0.609 -0.151,-1.027 -0.532,-1.255c-0.582,-0.355 -1.026,-0.621 -1.33,-0.798c-0.304,-0.178 -0.456,-0.457 -0.456,-0.836c-0,-0.228 0.184,-0.476 0.551,-0.742c0.368,-0.266 0.811,-0.519 1.331,-0.76c0.519,-0.241 1.057,-0.437 1.615,-0.589c0.557,-0.153 1.013,-0.228 1.368,-0.228c0.659,-0 1.09,0.145 1.292,0.437c0.204,0.291 0.318,0.754 0.343,1.387l0,1.749l0.152,-0c0.582,-1.065 1.381,-1.932 2.394,-2.604c1.014,-0.672 2.281,-1.008 3.802,-1.008c4.409,0 6.614,2.496 6.614,7.489l-0,8.438c-0,0.381 0.114,0.678 0.342,0.894c0.228,0.216 0.475,0.412 0.741,0.589c0.267,0.178 0.507,0.349 0.723,0.513c0.215,0.165 0.323,0.387 0.323,0.665c-0,0.66 -0.583,0.989 -1.749,0.989l-5.132,-0c-1.165,-0 -1.748,-0.329 -1.748,-0.989c0,-0.278 0.114,-0.5 0.342,-0.665c0.228,-0.164 0.475,-0.335 0.741,-0.513c0.266,-0.177 0.507,-0.373 0.722,-0.589c0.216,-0.216 0.324,-0.513 0.324,-0.894l-0,-7.678c-0,-3.345 -1.268,-5.018 -3.801,-5.018c-0.735,0 -1.388,0.153 -1.959,0.457c-0.57,0.304 -1.051,0.716 -1.444,1.235c-0.392,0.519 -0.69,1.128 -0.893,1.825c-0.203,0.697 -0.304,1.451 -0.304,2.261l-0,6.918c-0,0.381 0.114,0.678 0.342,0.894c0.228,0.216 0.475,0.412 0.741,0.589c0.266,0.178 0.507,0.349 0.722,0.513c0.216,0.165 0.323,0.387 0.323,0.665c0,0.66 -0.582,0.989 -1.748,0.989l-5.131,-0Z"
        style="fill:#002633;fill-rule:nonzero;"></path>
      <path
        d="M127.789,37.066c-1.52,-0 -2.902,-0.241 -4.143,-0.722c-1.242,-0.482 -2.306,-1.153 -3.194,-2.015c-0.886,-0.862 -1.571,-1.894 -2.052,-3.098c-0.482,-1.204 -0.723,-2.515 -0.723,-3.934c0,-1.521 0.273,-2.914 0.818,-4.181c0.545,-1.268 1.299,-2.357 2.262,-3.269c0.963,-0.913 2.09,-1.623 3.383,-2.129c1.292,-0.507 2.673,-0.76 4.143,-0.76c1.419,-0 2.744,0.228 3.972,0.684c1.229,0.456 2.3,1.102 3.212,1.938c0.912,0.837 1.629,1.857 2.148,3.06c0.519,1.204 0.78,2.553 0.78,4.049c-0,1.52 -0.267,2.914 -0.799,4.181c-0.532,1.267 -1.267,2.357 -2.204,3.269c-0.938,0.912 -2.06,1.629 -3.365,2.148c-1.305,0.519 -2.718,0.779 -4.238,0.779Zm1.027,-2.129c1.494,0 2.647,-0.57 3.459,-1.71c0.81,-1.14 1.216,-2.686 1.216,-4.638c0,-1.115 -0.133,-2.242 -0.4,-3.383c-0.265,-1.14 -0.658,-2.167 -1.178,-3.079c-0.519,-0.912 -1.165,-1.659 -1.939,-2.242c-0.772,-0.584 -1.665,-0.875 -2.679,-0.875c-1.572,0 -2.743,0.577 -3.516,1.73c-0.773,1.153 -1.16,2.68 -1.16,4.58c0,1.115 0.134,2.243 0.399,3.383c0.266,1.14 0.653,2.173 1.16,3.099c0.507,0.924 1.153,1.678 1.938,2.261c0.786,0.583 1.686,0.874 2.7,0.874Z"
        style="fill:#002633;fill-rule:nonzero;"></path>
    </g>
    <g>
      <path
        d="M144.514,36.346c-0.583,0 -1.026,-0.076 -1.331,-0.228c-0.304,-0.152 -0.456,-0.418 -0.456,-0.798c0,-0.279 0.114,-0.507 0.342,-0.685c0.228,-0.177 0.476,-0.348 0.742,-0.513c0.265,-0.165 0.506,-0.367 0.722,-0.608c0.215,-0.241 0.323,-0.551 0.323,-0.931l-0,-18.36c-0,-0.38 -0.108,-0.684 -0.323,-0.912c-0.216,-0.228 -0.457,-0.431 -0.722,-0.609c-0.266,-0.177 -0.514,-0.354 -0.742,-0.531c-0.228,-0.178 -0.342,-0.406 -0.342,-0.685c0,-0.38 0.152,-0.646 0.456,-0.798c0.305,-0.152 0.748,-0.228 1.331,-0.228l8.476,-0c2.104,-0 4.011,0.336 5.721,1.007c1.711,0.671 3.168,1.61 4.372,2.813c1.204,1.204 2.128,2.629 2.775,4.276c0.646,1.648 0.969,3.447 0.969,5.398c-0,2.002 -0.336,3.776 -1.007,5.322c-0.672,1.546 -1.584,2.838 -2.737,3.877c-1.154,1.039 -2.522,1.831 -4.106,2.376c-1.584,0.545 -3.288,0.817 -5.112,0.817l-9.351,0Zm8.591,-2.167c1.114,0 2.198,-0.177 3.25,-0.531c1.051,-0.356 1.983,-0.919 2.793,-1.692c0.811,-0.773 1.464,-1.768 1.958,-2.984c0.494,-1.216 0.742,-2.686 0.742,-4.41c-0,-1.9 -0.261,-3.586 -0.78,-5.056c-0.519,-1.469 -1.223,-2.717 -2.109,-3.744c-0.888,-1.026 -1.908,-1.805 -3.06,-2.337c-1.154,-0.532 -2.376,-0.798 -3.669,-0.798l-1.406,-0c-0.963,-0 -1.444,0.595 -1.444,1.786l-0,18.018c-0,1.166 0.506,1.748 1.52,1.748l2.205,0Z"
        style="fill:#002633;fill-rule:nonzero;"></path>
      <path
        d="M185.032,30.72c0.228,0 0.418,0.076 0.57,0.228c0.152,0.153 0.228,0.368 0.228,0.647c-0,0.329 -0.089,0.658 -0.266,0.988c-0.532,1.216 -1.438,2.243 -2.718,3.079c-1.28,0.836 -2.793,1.254 -4.542,1.254c-1.521,0 -2.895,-0.241 -4.125,-0.722c-1.229,-0.482 -2.28,-1.153 -3.155,-2.015c-0.874,-0.861 -1.552,-1.894 -2.033,-3.098c-0.482,-1.204 -0.722,-2.54 -0.722,-4.01c-0,-1.495 0.24,-2.864 0.722,-4.105c0.481,-1.242 1.147,-2.319 1.996,-3.231c0.849,-0.913 1.869,-1.622 3.06,-2.129c1.191,-0.506 2.496,-0.76 3.915,-0.76c1.292,0 2.426,0.19 3.402,0.57c0.975,0.38 1.793,0.899 2.451,1.559c0.66,0.658 1.16,1.444 1.502,2.356c0.342,0.913 0.513,1.901 0.513,2.966c-0,0.81 -0.19,1.399 -0.57,1.767c-0.38,0.367 -1.001,0.551 -1.862,0.551l-10.568,-0c0.101,1.014 0.329,1.939 0.684,2.775c0.355,0.836 0.818,1.552 1.388,2.148c0.57,0.595 1.242,1.057 2.014,1.387c0.773,0.33 1.616,0.494 2.528,0.494c0.963,-0 1.793,-0.184 2.49,-0.551c0.697,-0.367 1.387,-0.906 2.072,-1.616c0.355,-0.355 0.697,-0.532 1.026,-0.532Zm-7.603,-11.973c-1.267,-0 -2.325,0.544 -3.174,1.634c-0.848,1.09 -1.336,2.572 -1.463,4.447l8.401,0c0.051,-0.126 0.082,-0.303 0.095,-0.531c0.013,-0.229 0.019,-0.419 0.019,-0.571c-0,-1.52 -0.304,-2.73 -0.912,-3.63c-0.609,-0.899 -1.597,-1.349 -2.966,-1.349Z"
        style="fill:#002633;fill-rule:nonzero;"></path>
      <path
        d="M191.722,43.683c-0.482,0.075 -0.976,0.139 -1.482,0.189c-0.507,0.051 -0.97,0.064 -1.388,0.039c-0.418,-0.026 -0.76,-0.102 -1.026,-0.228c-0.267,-0.127 -0.399,-0.342 -0.399,-0.647c-0,-0.202 0.051,-0.355 0.152,-0.456c0.101,-0.101 0.291,-0.292 0.57,-0.57c0.253,-0.253 0.418,-0.551 0.494,-0.893c0.076,-0.342 0.114,-0.919 0.114,-1.73l0,-16.878c0,-0.43 -0.057,-0.785 -0.171,-1.064c-0.114,-0.278 -0.31,-0.519 -0.589,-0.722c-0.532,-0.405 -0.931,-0.678 -1.197,-0.817c-0.267,-0.139 -0.399,-0.4 -0.399,-0.779c-0,-0.279 0.183,-0.558 0.551,-0.836c0.367,-0.279 0.811,-0.527 1.33,-0.742c0.519,-0.215 1.071,-0.392 1.653,-0.532c0.583,-0.139 1.09,-0.209 1.521,-0.209c0.405,-0 0.741,0.12 1.008,0.361c0.265,0.24 0.399,0.627 0.399,1.159l-0,0.913l0.114,-0c0.658,-0.735 1.52,-1.331 2.584,-1.787c1.064,-0.456 2.192,-0.684 3.383,-0.684c1.293,-0 2.49,0.222 3.593,0.665c1.102,0.444 2.052,1.09 2.851,1.939c0.798,0.849 1.425,1.887 1.881,3.117c0.456,1.229 0.684,2.629 0.684,4.2c0,1.47 -0.222,2.826 -0.665,4.068c-0.443,1.241 -1.064,2.318 -1.863,3.231c-0.798,0.912 -1.754,1.628 -2.869,2.147c-1.116,0.52 -2.345,0.779 -3.687,0.779c-1.318,0 -2.44,-0.184 -3.365,-0.551c-0.925,-0.368 -1.717,-0.83 -2.375,-1.388l-0,4.372c-0,0.431 0.101,0.767 0.304,1.007c0.202,0.241 0.443,0.425 0.722,0.552c0.329,0.177 0.627,0.31 0.893,0.399c0.266,0.088 0.399,0.297 0.399,0.627c0,0.253 -0.107,0.468 -0.323,0.646c-0.215,0.178 -0.5,0.336 -0.855,0.476c-0.355,0.138 -0.754,0.259 -1.198,0.36c-0.443,0.102 -0.893,0.19 -1.349,0.267Zm6.728,-8.743c1.445,-0 2.573,-0.564 3.383,-1.692c0.811,-1.127 1.242,-2.717 1.293,-4.77c-0,-1.217 -0.133,-2.395 -0.399,-3.536c-0.267,-1.14 -0.647,-2.147 -1.141,-3.021c-0.494,-0.875 -1.083,-1.572 -1.767,-2.091c-0.685,-0.519 -1.445,-0.78 -2.281,-0.78c-0.532,0 -1.058,0.102 -1.578,0.305c-0.519,0.202 -0.988,0.519 -1.406,0.95c-0.418,0.431 -0.761,0.963 -1.026,1.596c-0.266,0.634 -0.399,1.382 -0.399,2.243l-0,4.257c-0,0.786 0.139,1.566 0.418,2.338c0.279,0.773 0.652,1.47 1.121,2.091c0.469,0.621 1.027,1.127 1.672,1.52c0.647,0.393 1.35,0.59 2.11,0.59Z"
        style="fill:#002633;fill-rule:nonzero;"></path>
      <path
        d="M210.348,36.346c-1.165,0 -1.749,-0.329 -1.749,-0.988c0,-0.279 0.115,-0.501 0.343,-0.666c0.228,-0.164 0.475,-0.335 0.741,-0.513c0.266,-0.177 0.507,-0.373 0.722,-0.589c0.215,-0.215 0.323,-0.513 0.323,-0.893l0,-19.311c0,-0.456 -0.063,-0.816 -0.19,-1.083c-0.127,-0.266 -0.329,-0.513 -0.608,-0.741c-0.507,-0.38 -0.894,-0.639 -1.159,-0.779c-0.266,-0.139 -0.4,-0.387 -0.4,-0.742c0,-0.278 0.209,-0.538 0.628,-0.779c0.418,-0.241 0.912,-0.462 1.482,-0.665c0.571,-0.203 1.134,-0.361 1.692,-0.475c0.557,-0.114 0.988,-0.171 1.292,-0.171c0.634,0 1.058,0.158 1.274,0.475c0.215,0.317 0.335,0.779 0.36,1.387l0,22.884c0,0.38 0.114,0.678 0.342,0.893c0.229,0.216 0.476,0.412 0.742,0.589c0.266,0.178 0.507,0.349 0.722,0.513c0.216,0.165 0.324,0.387 0.324,0.666c-0,0.659 -0.584,0.988 -1.749,0.988l-5.132,0Z"
        style="fill:#002633;fill-rule:nonzero;"></path>
      <path
        d="M227.909,36.916c-1.52,0 -2.901,-0.241 -4.143,-0.722c-1.242,-0.482 -2.306,-1.153 -3.192,-2.015c-0.888,-0.861 -1.572,-1.894 -2.053,-3.098c-0.482,-1.204 -0.722,-2.515 -0.722,-3.934c-0,-1.521 0.272,-2.914 0.816,-4.181c0.546,-1.267 1.299,-2.357 2.262,-3.269c0.963,-0.913 2.091,-1.622 3.384,-2.129c1.292,-0.507 2.673,-0.76 4.143,-0.76c1.419,-0 2.743,0.228 3.972,0.684c1.229,0.456 2.3,1.102 3.212,1.939c0.913,0.836 1.628,1.856 2.148,3.06c0.52,1.203 0.779,2.553 0.779,4.048c0,1.52 -0.266,2.914 -0.798,4.181c-0.532,1.267 -1.267,2.357 -2.205,3.27c-0.937,0.912 -2.059,1.628 -3.364,2.147c-1.305,0.52 -2.718,0.779 -4.239,0.779Zm1.027,-2.128c1.495,-0 2.648,-0.57 3.459,-1.711c0.811,-1.14 1.217,-2.686 1.217,-4.637c-0,-1.116 -0.134,-2.243 -0.399,-3.384c-0.267,-1.14 -0.66,-2.166 -1.179,-3.078c-0.519,-0.913 -1.166,-1.66 -1.938,-2.243c-0.774,-0.583 -1.667,-0.874 -2.68,-0.874c-1.571,-0 -2.744,0.576 -3.517,1.729c-0.772,1.153 -1.159,2.68 -1.159,4.58c0,1.116 0.133,2.244 0.399,3.384c0.266,1.14 0.653,2.172 1.16,3.098c0.506,0.925 1.153,1.678 1.938,2.261c0.786,0.583 1.685,0.875 2.699,0.875Z"
        style="fill:#002633;fill-rule:nonzero;"></path>
      <path
        d="M243.499,43.911c-1.445,-0 -2.591,-0.285 -3.44,-0.855c-0.849,-0.571 -1.274,-1.236 -1.274,-1.996c0,-0.71 0.197,-1.223 0.589,-1.54c0.393,-0.316 0.83,-0.475 1.312,-0.475c0.354,-0 0.652,0.114 0.893,0.342c0.241,0.228 0.488,0.475 0.741,0.741c0.253,0.267 0.551,0.507 0.893,0.723c0.343,0.215 0.779,0.323 1.312,0.323c0.532,-0 1.039,-0.152 1.52,-0.456c0.482,-0.305 0.938,-0.722 1.369,-1.255c0.43,-0.532 0.842,-1.159 1.235,-1.882c0.393,-0.722 0.767,-1.501 1.121,-2.337c-0.126,0.051 -0.24,0.082 -0.342,0.095c-0.101,0.013 -0.24,0.019 -0.417,0.019c-1.09,-0 -1.971,-0.234 -2.643,-0.703c-0.671,-0.469 -1.235,-1.147 -1.691,-2.034c-0.38,-0.761 -0.779,-1.634 -1.198,-2.623c-0.417,-0.988 -0.836,-2.014 -1.254,-3.079c-0.418,-1.064 -0.836,-2.135 -1.254,-3.212c-0.418,-1.077 -0.818,-2.084 -1.197,-3.022c-0.127,-0.279 -0.305,-0.507 -0.533,-0.684c-0.228,-0.177 -0.45,-0.342 -0.665,-0.495c-0.215,-0.151 -0.405,-0.322 -0.57,-0.513c-0.165,-0.189 -0.248,-0.437 -0.248,-0.741c0,-0.43 0.153,-0.69 0.457,-0.779c0.304,-0.088 0.747,-0.133 1.331,-0.133l5.701,0c0.684,0 1.134,0.069 1.349,0.209c0.216,0.139 0.324,0.387 0.324,0.742c-0,0.278 -0.114,0.5 -0.342,0.665c-0.228,0.164 -0.476,0.31 -0.741,0.436c-0.267,0.127 -0.501,0.279 -0.704,0.457c-0.202,0.177 -0.266,0.418 -0.19,0.722c0.177,0.583 0.399,1.293 0.665,2.129c0.266,0.836 0.551,1.704 0.856,2.604c0.303,0.899 0.614,1.786 0.931,2.66c0.317,0.875 0.614,1.641 0.893,2.3c0.203,0.456 0.437,0.862 0.703,1.217c0.266,0.355 0.615,0.532 1.046,0.532c0.43,-0 0.823,-0.19 1.178,-0.57c0.355,-0.381 0.735,-1.128 1.141,-2.243c0.354,-0.963 0.69,-1.945 1.007,-2.946c0.316,-1.001 0.475,-1.831 0.475,-2.49c-0,-0.583 -0.051,-1.071 -0.152,-1.463c-0.102,-0.393 -0.216,-0.748 -0.343,-1.064c-0.126,-0.318 -0.24,-0.641 -0.342,-0.97c-0.101,-0.329 -0.151,-0.722 -0.151,-1.178c-0,-0.735 0.253,-1.312 0.76,-1.73c0.507,-0.418 1.166,-0.627 1.977,-0.627c0.81,0 1.444,0.203 1.9,0.608c0.456,0.405 0.684,1.014 0.684,1.824c0,0.634 -0.19,1.318 -0.57,2.053c-0.38,0.735 -0.709,1.597 -0.988,2.585c-0.33,1.039 -0.621,1.92 -0.875,2.642c-0.253,0.722 -0.557,1.565 -0.912,2.528c-0.507,1.444 -1.083,2.844 -1.729,4.2c-0.647,1.356 -1.274,2.63 -1.882,3.821c-0.532,1.038 -1.052,1.983 -1.559,2.831c-0.507,0.849 -1.057,1.578 -1.653,2.186c-0.596,0.608 -1.254,1.077 -1.977,1.406c-0.722,0.33 -1.564,0.495 -2.527,0.495Z"
        style="fill:#002633;fill-rule:nonzero;"></path>
    </g>
  </g>
  <path
    d="M18.258,46.91c-8.256,-1.041 -14.722,-7.55 -16.71,-12.745c-2.411,-6.302 -1.521,-13.628 -0.564,-16.105c0.06,-0.116 0.17,-0.198 0.299,-0.221c0.127,-0.024 0.259,0.012 0.357,0.098c0.445,0.367 0.955,0.692 1.494,0.98c1.289,-9.057 6.445,-15.594 12.586,-17.916c7.832,-2.959 14.934,1.008 15.743,7.091c3.141,2.747 6.826,7.338 8.031,13.963c1.215,6.677 0.108,14.678 -5.7,19.906c3.536,0.35 6.215,1 6.237,2.057c0.045,2.052 -10.26,3.142 -17.883,3.142c-1.466,0 -2.767,-0.091 -3.89,-0.25Z"
    style="fill:#002633;"></path>
  <path
    d="M15.017,14.737c-0.031,0.001 -0.061,0.01 -0.087,0.026c-2.563,1.578 -3.307,8.19 -3.351,10.814c-0,0.093 -0.038,0.181 -0.105,0.245c-0.067,0.064 -0.157,0.097 -0.249,0.092c-2.29,-0.187 -6.382,-1.492 -7.748,-2.631c-0.037,-0.037 -0.094,-0.05 -0.144,-0.032c-0.05,0.018 -0.085,0.063 -0.091,0.116c-0.216,2.446 0.088,6.873 1.967,10.167c1.951,3.423 8.192,9.677 18.089,7.983c9.897,-1.695 13.246,-10.709 12.908,-16.672c-0.325,-5.719 -2.665,-9.813 -4.689,-11.844c-0.049,-0.048 -0.122,-0.063 -0.186,-0.04c-0.065,0.023 -0.111,0.081 -0.119,0.149c-0.442,2.543 -3.22,7.354 -5.17,8.001c-0.132,0.029 -0.27,-0.025 -0.346,-0.137c-1.864,-2.612 -6.836,-6.413 -10.679,-6.237Z"
    style="fill:#fefdf0;"></path>
  <ellipse cx="18.692" cy="7.319" rx="1.558" ry="1.952" style="fill:#fff;"></ellipse>
  <ellipse cx="25.883" cy="7.319" rx="1.559" ry="1.952" style="fill:#fff;"></ellipse>
</svg>
