<svg xmlns="http://www.w3.org/2000/svg" xmlns:xlink="http://www.w3.org/1999/xlink" id="Capa_1" x="0px" y="0px" width="347.152px" height="347.152px" viewBox="0 0 347.152 347.152" style="enable-background:new 0 0 347.152 347.152;" xml:space="preserve"> <g> <g> <g> <path d="M25.587,148.151c9.545,0,18.673,6.226,23.791,13.28c0.554,0.691,1.107,1.798,1.107,3.044v0.137 c0,4.149-7.195,5.534-11.207,6.915c-28.63,9.818-29.459,9.682-29.459,10.926c0,1.662,3.043,20.059,20.468,20.059 c6.089,0,12.175-2.627,16.463-6.774c0.69-0.691,1.799-1.938,3.182-1.938c1.244,0,2.212,0.827,2.212,2.073 c0,0.556-0.275,1.384-0.968,2.211c-5.672,7.332-14.663,12.312-24.481,12.312C15.351,210.394,0,202.927,0,179.275 C-0.001,159.91,11.754,148.151,25.587,148.151z M22.542,155.76c-8.022,0-13.276,7.47-13.276,19.781 c0,0.828,0.413,0.969,0.69,0.969c0.417,0,25.591-9.823,25.866-9.958c0.829-0.417,1.244-1.108,1.244-1.662 C37.066,163.229,30.287,155.76,22.542,155.76z"></path> <path d="M78.56,208.597c-0.415,0-6.087-0.832-13.005-0.832c-6.638,0-12.03,0.688-12.447,0.688c-1.799,0-1.936-1.521-1.936-2.485 v-0.416c0-2.627,0.966-2.492,5.672-3.045c3.593-0.414,3.872-2.486,3.872-5.255v-70.401c0-2.077-0.829-2.077-3.182-3.46 c-5.535-3.32-7.329-3.873-7.329-5.393v-0.141c0-1.107,0.274-0.826,17.011-9.542c0.414-0.278,0.968-0.554,1.658-0.554 c1.662,0,1.938,1.383,1.938,2.628v87.555c0,4.428,1.522,4.15,7.055,5.119c1.661,0.274,2.352,0.967,2.352,2.766 C80.218,207.492,79.942,208.597,78.56,208.597z"></path> <path d="M105.526,148.151c9.546,0,18.674,6.226,23.793,13.28c0.553,0.691,1.106,1.798,1.106,3.044v0.137 c0,4.149-7.193,5.534-11.205,6.915c-28.63,9.818-29.461,9.682-29.461,10.926c0,1.662,3.042,20.059,20.472,20.059 c6.085,0,12.17-2.627,16.461-6.774c0.69-0.691,1.799-1.938,3.18-1.938c1.246,0,2.213,0.827,2.213,2.073 c0,0.556-0.274,1.384-0.967,2.211c-5.672,7.332-14.663,12.312-24.483,12.312c-11.344,0-26.694-7.467-26.694-31.119 C79.94,159.91,91.699,148.151,105.526,148.151z M102.483,155.76c-8.021,0-13.277,7.47-13.277,19.781 c0,0.828,0.417,0.969,0.691,0.969c0.416,0,25.592-9.823,25.867-9.958c0.828-0.417,1.244-1.108,1.244-1.662 C117.009,163.229,110.231,155.76,102.483,155.76z"></path> <path d="M154.074,147.875c9.958,0,14.386,4.98,17.43,4.98c2.625,0,5.396-1.799,7.189-4.428c0.691-1.106,1.799-3.181,4.016-3.181 c2.627,0,5.256,2.903,5.256,5.672c0,5.393-8.715,7.33-9.959,8.3c-0.273,0.275-0.553,0.691-0.553,1.104 c0,0.829,1.52,3.457,1.52,8.715c0,12.725-9.958,23.238-22.96,23.238c-4.563,0-6.225-1.248-8.023-1.248 c-2.49,0-6.226,4.014-6.226,7.053c0,8.303,23.101,4.568,33.891,7.748c8.713,2.49,12.584,9.27,12.584,15.354 c0,7.607-5.945,18.953-28.769,18.953c-22.684,0-27.111-11.067-27.111-17.43c0-8.439,7.057-11.896,7.193-12.035 c0.137-0.141,0.277-0.279,0.277-0.555c0-0.83-5.118-2.074-5.118-8.299c0-7.059,7.747-12.865,7.884-13.002 c0.139-0.141,0.139-0.275,0.139-0.416c0-1.387-4.564-1.803-8.438-8.854c-1.799-3.043-2.628-6.5-2.628-10.099 C131.666,157.832,141.212,147.875,154.074,147.875z M162.65,233.632c14.246,0,17.562-6.084,17.562-10.1 c0-4.979-4.01-7.467-5.535-8.158c-6.222-3.184-14.794-1.938-29.184-3.456h-0.412c-0.971,0-1.387,0.556-2.354,1.521 c-1.66,1.657-2.628,4.146-2.628,6.5C140.104,228.24,149.924,233.632,162.65,233.632z M142.456,167.791 c0,10.373,5.668,19.643,14.246,19.643c7.468,0,12.311-6.775,12.311-15.354c0-9.683-5.672-19.503-14.524-19.503 C147.57,152.577,142.456,158.665,142.456,167.791z"></path> <path d="M209.949,147.738c5.256,0,18.672,1.659,20.059,15.214c0.139,1.661,0.273,3.319,0.273,4.98v27.25 c0,5.396,3.318,6.084,4.705,6.084c4.285,0,4.008-4.563,6.086-4.563c0.551,0,1.242,0.558,1.242,1.799 c0,3.185-3.459,10.929-10.648,10.929c-6.227,0-9.547-5.533-9.82-5.672c-0.139,0-0.139-0.14-0.273-0.14 c-0.689,0-0.277,0.69-3.734,3.043c-3.184,2.076-7.746,3.873-12.863,3.873c-9.543,0-15.77-7.058-15.77-15.49v-0.141 c0-5.252,2.492-9.681,5.811-12.308c7.469-5.951,24.066-6.504,24.344-6.645c0.971-0.273,1.105-0.965,1.105-1.938v-4.978 c0-4.427-0.557-7.887-3.318-11.068c-1.66-1.796-4.43-3.736-8.021-3.736c-7.885,0-11.617,8.716-11.896,9.271 c-0.416,0.553-1.246,1.521-3.043,1.521c-2.631,0-5.531-1.796-5.531-4.979C188.648,155.069,198.469,147.738,209.949,147.738z M219.77,197.254c0.689-0.968,0.828-1.937,0.828-3.181v-3.319v-5.673c0-3.318-0.139-4.012-1.383-4.012 c-2.49,0-11.896,0.691-16.463,4.98c-1.797,1.521-3.316,4.01-3.316,7.471c0,2.213,0.688,5.668,2.904,7.604 c1.66,1.521,4.145,1.801,5.945,1.801C215.066,202.929,219.078,198.222,219.77,197.254z"></path> <path d="M258.217,156.175h0.141c0.559,0,7.059-8.161,18.947-8.299h0.275c6.229,0,18.258,2.765,19.646,19.916 c0.275,2.354,0.275,4.704,0.275,7.058c0,2.353-0.141,4.841-0.141,23.931v0.274c0,3.875,1.797,3.599,6.643,4.287 c1.793,0.275,1.934,1.521,1.934,2.488c0,2.354-1.242,2.771-2.076,2.771c-1.238,0-4.697-0.834-11.613-0.834 c-6.086,0-11.068,0.834-11.342,0.834c-1.658,0-1.941-1.387-1.941-2.771c0-2.488,1.66-2.213,7.197-3.18 c1.795-0.277,2.213-0.969,2.213-3.32V177.89c0-2.485-0.145-10.791-1.801-14.938c-3.041-7.055-10.65-8.3-13.828-8.3 c-8.027,0-13.695,6.5-14.252,8.991c-0.137,0.554-0.137,1.245-0.137,1.798v32.781v0.414c0,1.521,0.137,3.459,3.045,3.873 c5.807,0.967,7.471,0.693,7.471,3.736c0,1.383-0.557,2.488-1.801,2.488c-0.414,0-6.088-0.971-12.865-0.971 c-6.639,0-11.758,0.832-12.17,0.832c-0.832,0-2.213-0.554-2.213-2.488c0-2.77,1.104-2.633,5.391-3.318 c3.461-0.555,3.6-2.354,3.6-4.707v-33.056c0-3.319,0-3.042-6.223-7.746c-0.416-0.416-0.832-0.829-0.832-1.383v-0.137 c0-1.108,0.277-0.97,13.143-7.884c0.414-0.279,0.828-0.554,1.387-0.554c1.244,0,1.656,0.969,1.656,2.074v5.393 c0,0.279-0.141,0.694-0.141,0.832C257.803,156.037,258.078,156.175,258.217,156.175z"></path> <path d="M305.238,155.484c0-2.352,6.92-4.843,14.383-17.565c0.42-0.695,1.246-2.491,2.771-2.491c0.822,0,1.797,0.414,1.797,2.212 c0,1.937-0.141,7.746-0.141,9.683c0,2.352,1.105,2.766,2.768,2.766h12.451c0.41,0,0.688,0.138,1.104,0.138 c1.25,0,3.596,0,3.596,2.631c0,0.826-0.551,3.181-1.244,4.007c-0.553,0.554-1.244,0.694-2.488,0.694h-16.184 c-0.969,0-1.383,0.275-1.383,1.246c-0.137,25.867-0.137,29.046-0.137,32.369c0,4.838,1.244,10.23,7.051,10.23 c6.641,0,12.039-8.297,15.078-8.297c1.521,0,2.492,1.246,2.492,2.49c0,1.104-0.695,1.934-0.973,2.352 c-4.844,5.529-11.619,12.445-19.229,12.445c-5.531,0-13.002-3.869-13.973-16.869c-0.139-1.523-0.139-2.906-0.139-4.428 c0-6.088,0.559-27.526,0.559-30.57c0-0.692-0.141-1.246-0.973-1.246h-4.424C306.762,157.28,305.238,157.142,305.238,155.484z"></path> </g> <g> <path d="M207.678,246.292l0.424,3.285c-0.82,0.225-1.553,0.334-2.201,0.334c-1.061,0-1.875-0.215-2.461-0.643 c-0.58-0.426-0.986-0.99-1.229-1.688c-0.234-0.692-0.354-2.159-0.354-4.396v-12.633h-2.137v-2.897h2.137v-5.438l2.893-2.23v7.672 h2.934v2.896h-2.934V243.4c0,1.062,0.053,1.742,0.156,2.045s0.27,0.547,0.502,0.729c0.232,0.178,0.562,0.271,0.994,0.271 C206.723,246.439,207.15,246.388,207.678,246.292z"></path> <path d="M216.158,249.623v-30.318h2.912v10.879c1.355-2.018,3.074-3.021,5.143-3.021c1.275,0,2.379,0.32,3.316,0.961 c0.939,0.646,1.609,1.529,2.016,2.66c0.408,1.129,0.607,2.771,0.607,4.922v13.92h-2.91v-13.92c0-1.859-0.318-3.217-0.947-4.062 c-0.633-0.854-1.521-1.271-2.678-1.271c-0.861,0-1.674,0.285-2.436,0.855c-0.764,0.574-1.307,1.352-1.629,2.328 c-0.324,0.979-0.482,2.33-0.482,4.055v12.019L216.158,249.623L216.158,249.623z"></path> <path d="M251.979,242.55l3.014,0.478c-0.477,2.243-1.355,3.991-2.641,5.231s-2.92,1.859-4.916,1.859 c-2.516,0-4.51-0.989-5.979-2.969c-1.475-1.977-2.211-4.752-2.211-8.324c0-3.693,0.744-6.562,2.232-8.604 c1.486-2.039,3.42-3.062,5.793-3.062c2.297,0,4.174,1.002,5.631,3c1.455,2.002,2.182,4.812,2.182,8.438 c0,0.224,0,0.556-0.014,0.994h-12.814c0.107,2.412,0.646,4.26,1.604,5.541c0.961,1.279,2.156,1.926,3.59,1.926 c1.07,0,1.982-0.358,2.734-1.076C250.939,245.265,251.539,244.121,251.979,242.55z M242.42,236.529h9.598 c-0.135-1.846-0.496-3.23-1.104-4.158c-0.93-1.432-2.127-2.148-3.605-2.148c-1.34,0-2.465,0.574-3.373,1.72 C243.02,233.083,242.514,234.613,242.42,236.529z"></path> <path d="M264.281,249.623v-21.967h2.604v3.082c0.533-1.076,1.258-1.938,2.152-2.594c0.896-0.656,1.91-0.984,3.057-0.984 c1.271,0,2.314,0.338,3.127,1.018c0.814,0.674,1.393,1.618,1.725,2.832c1.357-2.562,3.135-3.85,5.311-3.85 c1.703,0,3.02,0.604,3.938,1.812c0.912,1.203,1.371,3.062,1.371,5.573v15.076h-2.896v-13.836c0-1.49-0.092-2.562-0.281-3.219 c-0.188-0.654-0.531-1.185-1.023-1.58c-0.5-0.397-1.076-0.603-1.75-0.603c-1.205,0-2.209,0.517-3.008,1.543 c-0.797,1.023-1.199,2.67-1.199,4.931v12.766H274.5v-14.271c0-1.652-0.234-2.896-0.711-3.721c-0.48-0.83-1.25-1.244-2.33-1.244 c-0.82,0-1.576,0.272-2.271,0.826c-0.701,0.551-1.205,1.36-1.518,2.422c-0.314,1.062-0.473,2.592-0.473,4.59v11.396h-2.908l0,0 L264.281,249.623L264.281,249.623z"></path> <path d="M309.27,242.55l3.014,0.478c-0.479,2.243-1.355,3.991-2.641,5.231s-2.92,1.859-4.918,1.859 c-2.514,0-4.502-0.989-5.979-2.969c-1.471-1.977-2.209-4.752-2.209-8.324c0-3.693,0.744-6.562,2.229-8.604 c1.49-2.039,3.422-3.062,5.797-3.062c2.295,0,4.17,1.002,5.629,3c1.457,2.002,2.188,4.812,2.188,8.438 c0,0.224-0.006,0.556-0.018,0.994h-12.812c0.104,2.412,0.645,4.26,1.604,5.541c0.957,1.279,2.156,1.926,3.592,1.926 c1.066,0,1.979-0.358,2.73-1.076C308.232,245.265,308.828,244.121,309.27,242.55z M299.711,236.529h9.594 c-0.125-1.846-0.49-3.23-1.1-4.158c-0.926-1.432-2.131-2.148-3.609-2.148c-1.338,0-2.461,0.574-3.375,1.72 C300.312,233.083,299.809,234.613,299.711,236.529z"></path> <path d="M320.408,243.066l2.881-0.576c0.16,1.475,0.605,2.604,1.348,3.391c0.74,0.785,1.771,1.18,3.1,1.18 c1.338,0,2.33-0.352,2.98-1.045c0.648-0.694,0.971-1.518,0.971-2.453c0-0.838-0.283-1.504-0.854-1.981 c-0.4-0.332-1.396-0.754-2.98-1.264c-2.137-0.689-3.613-1.285-4.438-1.787s-1.451-1.199-1.875-2.091 c-0.434-0.894-0.646-1.87-0.646-2.948c0-0.979,0.18-1.886,0.527-2.72c0.35-0.829,0.824-1.526,1.428-2.075 c0.453-0.429,1.072-0.789,1.854-1.088c0.787-0.296,1.625-0.445,2.521-0.445c1.352,0,2.527,0.25,3.551,0.746 c1.018,0.498,1.773,1.168,2.26,2.021c0.484,0.846,0.816,1.979,1.002,3.397l-2.848,0.496c-0.133-1.129-0.506-2.015-1.125-2.646 c-0.619-0.635-1.496-0.953-2.627-0.953c-1.346,0-2.297,0.285-2.869,0.851c-0.566,0.565-0.854,1.229-0.854,1.985 c0,0.48,0.119,0.916,0.354,1.304c0.234,0.397,0.607,0.729,1.119,0.991c0.287,0.138,1.146,0.455,2.568,0.953 c2.061,0.701,3.494,1.275,4.312,1.726c0.812,0.449,1.457,1.103,1.914,1.955c0.467,0.854,0.699,1.916,0.699,3.187 c0,1.239-0.285,2.407-0.85,3.504c-0.568,1.098-1.385,1.944-2.455,2.545c-1.066,0.602-2.271,0.897-3.621,0.897 c-2.23,0-3.938-0.592-5.105-1.774C321.475,247.154,320.729,245.394,320.408,243.066z"></path> </g> <g> <polygon points="308.979,118.18 305.15,106.227 289.16,113.179 290.766,97.031 278.217,97.031 279.785,112.609 265.111,106.227 261.285,118.18 276.49,121.432 265.045,133.562 274.988,141.217 284.674,125.67 294.357,141.217 304.307,133.562 293.01,121.597 "></polygon> </g> </g> </g> <g> </g> <g> </g> <g> </g> <g> </g> <g> </g> <g> </g> <g> </g> <g> </g> <g> </g> <g> </g> <g> </g> <g> </g> <g> </g> <g> </g> <g> </g> </svg>