<svg width="100%" height="100%" viewBox="0 0 787 84" version="1.1" xmlns="http://www.w3.org/2000/svg" xmlns:xlink="http://www.w3.org/1999/xlink" xml:space="preserve" xmlns:serif="http://www.serif.com/" style="fill-rule:evenodd;clip-rule:evenodd;stroke-linejoin:round;stroke-miterlimit:1.41421;"><g><path d="M28.554,72.61c0,-2.346 -1.121,-3.468 -3.467,-3.468l-6.527,0l0,-54.865l6.527,0c2.346,0 3.467,-1.122 3.467,-3.467l0,-7.343c0,-2.345 -1.121,-3.467 -3.467,-3.467l-21.62,0c-2.345,0 -3.467,1.122 -3.467,3.467l0,76.485c0,2.346 1.122,3.467 3.467,3.467l21.62,0c2.346,0 3.467,-1.121 3.467,-3.467l0,-7.342Z" style="fill:#a7a8aa;fill-rule:nonzero;"/><path d="M50.664,49.052c0,4.575 -2.4,6.525 -6.3,6.525c-2.175,0 -4.05,-0.6 -5.475,-1.275c-1.725,-0.825 -2.85,-0.15 -3.45,1.575l-2.625,7.125c-0.675,1.875 0,2.7 1.35,3.525c2.775,1.725 7.575,3.3 13.35,3.3c12.225,0 19.5,-5.7 19.5,-19.425l0,-31.725c0,-1.875 -0.825,-2.7 -2.7,-2.7l-10.95,0c-1.875,0 -2.7,0.825 -2.7,2.7l0,30.375Z" style="fill:#53565a;fill-rule:nonzero;"/><path d="M93.864,69.977c12.675,0 21,-6.975 21,-21.15c0,-14.175 -8.325,-21.15 -21,-21.15c-12.675,0 -21,6.975 -21,21.15c0,14.175 8.325,21.15 21,21.15Zm0,-11.7c-3.6,0 -5.175,-2.775 -5.175,-9.45c0,-6.675 1.575,-9.45 5.175,-9.45c3.6,0 5.175,2.775 5.175,9.45c0,6.675 -1.575,9.45 -5.175,9.45Z" style="fill:#53565a;fill-rule:nonzero;"/><path d="M152.664,57.527c0,-8.475 -5.7,-10.575 -12.375,-13.05c-3.375,-1.275 -5.7,-2.175 -5.7,-3.75c0,-1.5 1.65,-2.175 4.35,-2.175c2.625,0 5.25,0.45 7.125,0.975c1.725,0.45 2.775,-0.075 3.225,-1.65l1.425,-4.95c0.45,-1.65 0,-2.55 -1.65,-3.225c-2.925,-1.2 -7.875,-2.025 -12.6,-2.025c-10.275,0 -17.175,3.75 -17.175,12.45c0,9.75 7.05,11.775 12.675,13.575c3.6,1.125 5.4,1.8 5.4,3.225c0,1.425 -1.95,2.175 -5.775,2.175c-3.225,0 -5.625,-0.6 -7.65,-1.2c-1.725,-0.525 -2.775,0.075 -3.225,1.65l-1.425,4.95c-0.45,1.65 0,2.55 1.65,3.225c3.075,1.2 7.725,2.25 13.575,2.25c8.925,0 18.15,-2.25 18.15,-12.45Z" style="fill:#53565a;fill-rule:nonzero;"/><path d="M198.264,43.202c0,-10.05 -3.6,-15.525 -12.975,-15.525c-5.7,0 -9.45,2.325 -11.325,4.875l0,-14.025c0,-1.725 -0.825,-2.55 -2.55,-2.55l-10.5,0c-1.725,0 -2.55,0.825 -2.55,2.55l0,48c0,1.725 0.825,2.55 2.55,2.55l10.5,0c1.725,0 2.55,-0.825 2.55,-2.55l0,-19.95c0,-3.675 1.2,-6.15 4.725,-6.15c3.075,0 3.975,1.875 3.975,5.775l0,20.325c0,1.725 0.825,2.55 2.55,2.55l10.5,0c1.725,0 2.55,-0.825 2.55,-2.55l0,-23.325Z" style="fill:#53565a;fill-rule:nonzero;"/><path d="M204.848,79.952c0,2.346 1.122,3.467 3.467,3.467l21.62,0c2.346,0 3.467,-1.121 3.467,-3.467l0,-76.485c0,-2.345 -1.121,-3.467 -3.467,-3.467l-21.62,0c-2.345,0 -3.467,1.122 -3.467,3.467l0,7.343c0,2.345 1.122,3.467 3.467,3.467l6.527,0l0,54.865l-6.527,0c-2.345,0 -3.467,1.122 -3.467,3.468l0,7.342Z" style="fill:#ffd100;fill-rule:nonzero;"/><path d="M278.681,72.61c0,-2.346 -1.121,-3.468 -3.467,-3.468l-6.527,0l0,-54.865l6.527,0c2.346,0 3.467,-1.122 3.467,-3.467l0,-7.343c0,-2.345 -1.121,-3.467 -3.467,-3.467l-21.62,0c-2.345,0 -3.467,1.122 -3.467,3.467l0,76.485c0,2.346 1.122,3.467 3.467,3.467l21.62,0c2.346,0 3.467,-1.121 3.467,-3.467l0,-7.342Z" style="fill:#ffd100;fill-rule:nonzero;"/><path d="M312.491,55.877c-8.25,0 -11.625,-3.525 -11.625,-13.35c0,-9.825 3.225,-13.35 11.325,-13.35c3,0 5.55,0.675 7.2,1.35c2.025,0.825 3.075,0.525 3.825,-1.2l3.075,-6.675c0.825,-1.725 0.225,-2.55 -1.35,-3.6c-3.15,-2.1 -8.625,-3.975 -15.525,-3.975c-15.225,0 -25.125,8.025 -25.125,27.45c0,19.425 10.2,27.45 25.5,27.45c6.9,0 12.6,-1.95 15.75,-4.05c1.575,-1.05 2.175,-1.875 1.35,-3.6l-3.15,-6.75c-0.825,-1.725 -1.8,-2.025 -3.825,-1.2c-1.65,0.675 -4.35,1.5 -7.425,1.5Z" style="fill:#53565a;fill-rule:nonzero;"/><path d="M351.566,69.977c12.675,0 21,-6.975 21,-21.15c0,-14.175 -8.325,-21.15 -21,-21.15c-12.675,0 -21,6.975 -21,21.15c0,14.175 8.325,21.15 21,21.15Zm0,-11.7c-3.6,0 -5.175,-2.775 -5.175,-9.45c0,-6.675 1.575,-9.45 5.175,-9.45c3.6,0 5.175,2.775 5.175,9.45c0,6.675 -1.575,9.45 -5.175,9.45Z" style="fill:#53565a;fill-rule:nonzero;"/><path d="M394.316,18.527c0,-1.725 -0.825,-2.55 -2.55,-2.55l-10.5,0c-1.725,0 -2.55,0.825 -2.55,2.55l0,48c0,1.725 0.825,2.55 2.55,2.55l10.5,0c1.725,0 2.55,-0.825 2.55,-2.55l0,-48Z" style="fill:#53565a;fill-rule:nonzero;"/><path d="M417.716,18.527c0,-1.725 -0.825,-2.55 -2.55,-2.55l-10.5,0c-1.725,0 -2.55,0.825 -2.55,2.55l0,48c0,1.725 0.825,2.55 2.55,2.55l10.5,0c1.725,0 2.55,-0.825 2.55,-2.55l0,-48Z" style="fill:#53565a;fill-rule:nonzero;"/><path d="M441.266,31.127c0,-1.725 -0.825,-2.55 -2.55,-2.55l-10.5,0c-1.725,0 -2.55,0.825 -2.55,2.55l0,35.4c0,1.725 0.825,2.55 2.55,2.55l10.5,0c1.725,0 2.55,-0.825 2.55,-2.55l0,-35.4Zm0.15,-12.6c0,-1.725 -0.825,-2.55 -2.55,-2.55l-10.8,0c-1.725,0 -2.55,0.825 -2.55,2.55l0,3.975c0,1.725 0.825,2.55 2.55,2.55l10.8,0c1.725,0 2.55,-0.825 2.55,-2.55l0,-3.975Z" style="fill:#53565a;fill-rule:nonzero;"/><path d="M488.816,43.127c0,-9.975 -3.6,-15.45 -12.975,-15.45c-5.7,0 -9.6,2.625 -11.625,5.475l-0.825,-2.625c-0.3,-1.05 -0.9,-1.95 -2.625,-1.95l-9.3,0c-1.725,0 -2.55,0.825 -2.55,2.55l0,35.4c0,1.725 0.825,2.55 2.55,2.55l10.5,0c1.725,0 2.55,-0.825 2.55,-2.55l0,-19.95c0,-3.675 1.2,-6.15 4.725,-6.15c3.075,0 3.975,1.875 3.975,5.775l0,20.325c0,1.725 0.825,2.55 2.55,2.55l10.5,0c1.725,0 2.55,-0.825 2.55,-2.55l0,-23.4Z" style="fill:#53565a;fill-rule:nonzero;"/><path d="M527.891,57.527c0,-8.475 -5.7,-10.575 -12.375,-13.05c-3.375,-1.275 -5.7,-2.175 -5.7,-3.75c0,-1.5 1.65,-2.175 4.35,-2.175c2.625,0 5.25,0.45 7.125,0.975c1.725,0.45 2.775,-0.075 3.225,-1.65l1.425,-4.95c0.45,-1.65 0,-2.55 -1.65,-3.225c-2.925,-1.2 -7.875,-2.025 -12.6,-2.025c-10.275,0 -17.175,3.75 -17.175,12.45c0,9.75 7.05,11.775 12.675,13.575c3.6,1.125 5.4,1.8 5.4,3.225c0,1.425 -1.95,2.175 -5.775,2.175c-3.225,0 -5.625,-0.6 -7.65,-1.2c-1.725,-0.525 -2.775,0.075 -3.225,1.65l-1.425,4.95c-0.45,1.65 0,2.55 1.65,3.225c3.075,1.2 7.725,2.25 13.575,2.25c8.925,0 18.15,-2.25 18.15,-12.45Z" style="fill:#53565a;fill-rule:nonzero;"/><path d="M558.866,28.577c-1.8,0 -2.475,0.9 -2.775,2.1l-3.825,14.775l-1.575,8.025l-0.225,0l-1.35,-8.025l-2.925,-14.55c-0.3,-1.575 -1.35,-2.325 -3.075,-2.325l-10.8,0c-1.8,0 -2.475,1.275 -1.95,3l10.275,35.025c0.45,1.575 1.425,2.475 3.225,2.475l9.75,0c1.8,0 2.925,-0.675 3.45,-2.55l3.3,-12.075l1.875,-8.25l0.3,0l1.875,8.25l3.3,12.075c0.525,1.875 1.65,2.55 3.45,2.55l9.75,0c1.8,0 2.775,-0.9 3.225,-2.475l10.275,-35.025c0.525,-1.725 -0.15,-3 -1.95,-3l-10.8,0c-1.725,0 -2.775,0.75 -3.075,2.325l-2.925,14.55l-1.35,8.025l-0.225,0l-1.575,-8.025l-3.825,-14.775c-0.3,-1.2 -0.975,-2.1 -2.775,-2.1l-7.05,0Z" style="fill:#53565a;fill-rule:nonzero;"/><path d="M618.341,69.977c12.675,0 21,-6.975 21,-21.15c0,-14.175 -8.325,-21.15 -21,-21.15c-12.675,0 -21,6.975 -21,21.15c0,14.175 8.325,21.15 21,21.15Zm0,-11.7c-3.6,0 -5.175,-2.775 -5.175,-9.45c0,-6.675 1.575,-9.45 5.175,-9.45c3.6,0 5.175,2.775 5.175,9.45c0,6.675 -1.575,9.45 -5.175,9.45Z" style="fill:#53565a;fill-rule:nonzero;"/><path d="M647.741,28.577c-1.725,0 -2.55,0.825 -2.55,2.55l0,35.4c0,1.725 0.825,2.55 2.55,2.55l10.5,0c1.725,0 2.55,-0.825 2.55,-2.55l0,-17.1c0,-4.35 2.625,-7.05 7.575,-7.05c1.425,0 2.175,0.225 3.3,0.225c1.275,0 2.175,-0.3 2.175,-2.025l0,-10.2c0,-1.725 -0.675,-2.4 -2.475,-2.4c-5.175,0 -9.15,3.45 -10.875,6.675l-0.9,-3.9c-0.3,-1.275 -0.825,-2.175 -2.55,-2.175l-9.3,0Z" style="fill:#53565a;fill-rule:nonzero;"/><path d="M702.791,41.327c1.725,0 2.55,-0.825 2.55,-2.55l0,-5.85c0,-1.725 -0.825,-2.55 -2.55,-2.55l-6,0l0,-8.85c0,-1.5 -0.825,-2.25 -2.625,-2.25l-9.75,0c-1.8,0 -2.625,0.75 -2.625,2.25l0,8.85l-2.55,0c-1.725,0 -2.55,0.825 -2.55,2.55l0,5.85c0,1.725 0.825,2.55 2.55,2.55l2.4,0l0,15.525c0,9.675 4.575,12.975 14.1,12.975c3,0 5.55,-0.3 7.125,-0.675c1.575,-0.375 2.475,-0.9 2.475,-2.625l0,-6c0,-1.65 -0.825,-2.325 -2.1,-2.325c-1.125,0 -2.1,0.225 -2.775,0.225c-2.625,0 -3.525,-0.825 -3.525,-3.3l0,-13.8l5.85,0Z" style="fill:#53565a;fill-rule:nonzero;"/><path d="M751.091,43.202c0,-10.05 -3.6,-15.525 -12.975,-15.525c-5.7,0 -9.45,2.325 -11.325,4.875l0,-14.025c0,-1.725 -0.825,-2.55 -2.55,-2.55l-10.5,0c-1.725,0 -2.55,0.825 -2.55,2.55l0,48c0,1.725 0.825,2.55 2.55,2.55l10.5,0c1.725,0 2.55,-0.825 2.55,-2.55l0,-19.95c0,-3.675 1.2,-6.15 4.725,-6.15c3.075,0 3.975,1.875 3.975,5.775l0,20.325c0,1.725 0.825,2.55 2.55,2.55l10.5,0c1.725,0 2.55,-0.825 2.55,-2.55l0,-23.325Z" style="fill:#53565a;fill-rule:nonzero;"/><path d="M757.675,79.952c0,2.346 1.122,3.467 3.467,3.467l21.62,0c2.346,0 3.467,-1.121 3.467,-3.467l0,-76.485c0,-2.345 -1.121,-3.467 -3.467,-3.467l-21.62,0c-2.345,0 -3.467,1.122 -3.467,3.467l0,7.343c0,2.345 1.122,3.467 3.467,3.467l6.527,0l0,54.865l-6.527,0c-2.345,0 -3.467,1.122 -3.467,3.468l0,7.342Z" style="fill:#a7a8aa;fill-rule:nonzero;"/></g></svg>
