<?xml version="1.0" encoding="UTF-8" standalone="no"?>
<!DOCTYPE svg PUBLIC "-//W3C//DTD SVG 1.1//EN" "http://www.w3.org/Graphics/SVG/1.1/DTD/svg11.dtd">
<svg width="100%" height="100%" viewBox="0 0 1920 1080" version="1.1" xmlns="http://www.w3.org/2000/svg" xmlns:xlink="http://www.w3.org/1999/xlink" xml:space="preserve" xmlns:serif="http://www.serif.com/" style="fill-rule:evenodd;clip-rule:evenodd;stroke-linejoin:round;stroke-miterlimit:2;">
    <g transform="matrix(1.07917,0,0,1.07917,-377.645,69.4466)">
        <g transform="matrix(1.42955,0,0,1.42955,-214.002,-187.297)">
            <path d="M498.203,496L512.899,496L512.899,445.155L565.434,445.155L565.434,431.641L512.899,431.641L512.899,389.579L574.724,389.579L574.724,376.066L498.203,376.066L498.203,496Z" style="fill:rgb(16,24,32);fill-rule:nonzero;"/>
        </g>
        <g transform="matrix(1.42955,0,0,1.42955,-214.002,-187.297)">
            <path d="M732.835,376.066L703.274,472.182L703.105,472.182L676.077,376.066L660.03,376.066L633.002,471.844L632.665,471.844L603.103,376.066L587.394,376.066L625.739,496L639.928,496L668.138,397.688L668.307,397.688L696.01,496L710.2,496L748.545,376.066L732.835,376.066Z" style="fill:rgb(16,24,32);fill-rule:nonzero;"/>
        </g>
        <g transform="matrix(1.42955,0,0,1.42955,-214.002,-187.297)">
            <rect x="770.505" y="376.066" width="14.865" height="119.934" style="fill:rgb(16,24,32);fill-rule:nonzero;"/>
        </g>
        <g transform="matrix(1.42955,0,0,1.42955,-214.002,-187.297)">
            <path d="M952.771,376.066L923.21,472.182L923.041,472.182L896.013,376.066L879.966,376.066L852.938,471.844L852.6,471.844L823.039,376.066L807.329,376.066L845.675,496L859.864,496L888.074,397.688L888.243,397.688L915.946,496L930.135,496L968.481,376.066L952.771,376.066Z" style="fill:rgb(16,24,32);fill-rule:nonzero;"/>
        </g>
    </g>
    <g transform="matrix(1.0771,0,0,1.0771,708.666,385.108)">
        <path d="M504.622,377.755C502.933,380.289 502.764,382.823 502.595,385.525L515.602,387.046L497.865,486.709C491.446,487.047 486.041,488.905 484.182,490.763C483.845,491.608 483.676,492.453 483.676,493.466C483.676,494.311 483.845,495.155 484.014,496L523.203,496C524.555,493.466 525.061,490.932 525.061,488.23L509.521,486.709L517.629,441.607L554.792,441.607C555.805,438.736 556.312,436.371 556.65,433.161L518.811,434.175L527.595,385.525L567.968,385.525L566.616,404.951C567.968,406.809 570.501,407.823 573.373,407.823C574.049,407.823 574.556,407.823 575.231,407.654C577.596,399.377 579.285,389.917 581.143,377.755L504.622,377.755Z" style="fill:rgb(252,252,252);fill-rule:nonzero;"/>
        <path d="M718.815,377.755C717.463,380.289 717.125,382.823 717.125,385.525L729.963,387.046L690.267,483.331L678.611,384.681C677.598,384.512 676.584,384.512 675.74,384.512C672.868,384.512 670.334,385.019 667.8,386.032L627.09,482.655L617.462,387.046C623.881,386.708 629.455,385.019 631.482,382.991C631.82,382.147 631.82,381.133 631.82,380.289C631.82,379.444 631.82,378.431 631.651,377.755L594.826,377.755C593.475,380.289 592.968,382.823 592.968,385.525L605.806,387.046L617.124,497.689C621.854,498.196 626.583,497.182 629.962,494.986L669.152,402.924L680.807,497.689C685.368,498.196 690.098,497.182 693.476,494.986L738.916,387.046C745.335,386.708 750.572,384.85 752.599,382.991C752.937,382.147 752.937,381.133 752.937,380.289C752.937,379.444 752.937,378.431 752.768,377.755L718.815,377.755Z" style="fill:rgb(252,252,252);fill-rule:nonzero;"/>
        <path d="M783.512,496C784.863,493.466 785.37,490.932 785.37,488.23L772.363,486.709L790.099,387.046C796.519,386.708 801.924,384.85 803.951,382.991C804.289,382.147 804.289,381.133 804.289,380.289C804.289,379.444 804.289,378.431 804.12,377.755L767.464,377.755C765.775,380.289 765.606,382.823 765.437,385.525L778.444,387.046L760.707,486.709C754.288,487.047 748.883,488.905 747.024,490.763C746.687,491.608 746.518,492.453 746.518,493.466C746.518,494.311 746.687,495.155 746.856,496L783.512,496Z" style="fill:rgb(252,252,252);fill-rule:nonzero;"/>
        <path d="M941.96,377.755C940.609,380.289 940.271,382.823 940.271,385.525L953.109,387.046L913.412,483.331L901.757,384.681C900.743,384.512 899.73,384.512 898.885,384.512C896.013,384.512 893.48,385.019 890.946,386.032L850.236,482.655L840.607,387.046C847.026,386.708 852.6,385.019 854.628,382.991C854.965,382.147 854.965,381.133 854.965,380.289C854.965,379.444 854.965,378.431 854.796,377.755L817.972,377.755C816.62,380.289 816.113,382.823 816.113,385.525L828.951,387.046L840.269,497.689C844.999,498.196 849.729,497.182 853.107,494.986L892.297,402.924L903.953,497.689C908.514,498.196 913.243,497.182 916.622,494.986L962.062,387.046C968.481,386.708 973.717,384.85 975.744,382.991C976.082,382.147 976.082,381.133 976.082,380.289C976.082,379.444 976.082,378.431 975.913,377.755L941.96,377.755Z" style="fill:rgb(252,252,252);fill-rule:nonzero;"/>
    </g>
</svg>
