<svg xmlns="http://www.w3.org/2000/svg" xmlns:xlink="http://www.w3.org/1999/xlink" width="100%" height="100%" viewBox="0 0 1909 725" xml:space="preserve" style="fill-rule:evenodd;clip-rule:evenodd;stroke-linejoin:round;stroke-miterlimit:1.41421;"> <g> <path d="M903.333,618.333c-13.333,0 -25,14.584 -25,30c0,9.584 5.834,16.667 16.667,16.667c12.917,0 23.333,-14.167 23.333,-29.167c0,-10.416 -5.416,-17.5 -15,-17.5Z" style="fill:none;"></path> <path d="M1126.67,255.417c-47.5,0 -79.167,42.5 -79.167,98.333c0,57.917 31.667,102.083 79.167,102.083c47.5,0 78.75,-44.166 78.75,-102.083c0.416,-55.833 -31.25,-98.333 -78.75,-98.333Z" style="fill:none;"></path> <path d="M644.167,374.167l-216.25,216.666l0,62.5l234.583,-234.583c20.417,-20.417 30.417,-39.167 30.833,-56.667c0,-12.5 -5,-25.416 -15.416,-39.166c-5.834,17.083 -17.084,34.583 -33.75,51.25Z" style="fill:none;"></path> <path d="M306.667,71.25l-234.584,234.583c-20.416,20.417 -30.416,39.167 -30.833,56.667c0,12.5 5,25.417 15.417,39.167c5.833,-17.084 17.083,-34.584 33.75,-51.25l216.25,-216.25l0,-62.917Z" style="fill:none;"></path> <path d="M106.25,452.083c1.25,1.25 2.083,2.5 2.917,3.75l197.5,197.5l0,-63.75l-197.5,-197.5c-27.917,35 -9.167,53.75 -2.917,60Z" style="fill:none;"></path> <path d="M628.75,272.5c-1.25,-1.25 -2.083,-2.5 -2.917,-3.75l-197.5,-197.5l0,63.75l197.5,197.5c27.917,-35 9.167,-53.75 2.917,-60Z" style="fill:none;"></path> <path d="M1469.17,616.25c-9.584,0 -17.084,7.5 -21.25,18.75l34.583,0c0.417,-2.083 0.833,-3.75 0.833,-5.833c0,-7.5 -5,-12.917 -14.166,-12.917Z" style="fill:none;"></path> <path d="M1542.92,616.25c-9.584,0 -17.917,7.5 -21.25,18.75l34.583,0c0.417,-2.083 0.833,-3.75 0.833,-5.833c0,-7.5 -5,-12.917 -14.166,-12.917Z" style="fill:none;"></path> <path d="M1623.33,266.667l-33.333,119.583l66.667,0l-30.834,-109.167l-2.5,-10.416Z" style="fill:none;"></path> <path d="M997.917,605c-5.417,0 -9.167,4.583 -9.167,9.167c0,4.583 2.917,7.5 6.25,9.166c-2.5,10.417 -11.667,23.75 -22.5,38.334l-8.75,-55.834l-20.417,0l-2.916,11.667l11.666,0l10.834,55c-13.75,17.083 -20.417,22.917 -24.167,22.917c-0.417,-3.75 -4.167,-6.667 -7.917,-6.667c-4.583,0 -8.333,3.333 -8.333,8.75c0,5.417 4.583,10 12.083,10.833c10,0 19.584,-4.166 42.917,-34.583c25,-31.667 30.833,-46.667 30.833,-55.833c0,-7.917 -4.166,-12.917 -10.416,-12.917Z" style="fill:#267049;fill-rule:nonzero;"></path> <path d="M1047.92,582.083l13.333,0l-17.5,80.417l-11.667,0l-2.916,12.5l40.416,0l2.084,-12.917l-14.584,0l7.5,-32.916l30.834,0l2.916,-12.917l-30.833,0l7.917,-34.583l32.916,0l-3.333,15l13.333,0l6.25,-27.917l-73.75,0l-2.916,13.333Z" style="fill:#267049;fill-rule:nonzero;"></path> <path d="M1159.58,659.167l-5.833,-2.084c-3.333,8.334 -6.25,10.417 -9.167,10.417c-2.083,0 -3.75,-1.667 -3.75,-4.583c0,-1.25 0.417,-3.75 0.834,-6.25l21.666,-87.5l-25.833,0l-2.917,10.833l12.917,0l-19.167,77.5c-0.416,1.667 -0.833,4.167 -0.833,6.25c0,7.5 4.583,12.5 13.333,12.083c7.917,0 15,-4.583 18.75,-16.666Z" style="fill:#267049;fill-rule:nonzero;"></path> <path d="M1226.67,605c-5.417,0 -9.167,4.583 -9.167,9.167c0,4.583 2.917,7.5 6.25,9.166c-2.5,10.417 -11.667,23.75 -22.5,38.334l-8.75,-55.834l-20.417,0l-2.916,11.667l11.666,0l10.834,55c-13.75,17.083 -20.417,22.917 -24.167,22.917c-0.417,-3.75 -4.167,-6.667 -7.917,-6.667c-4.583,0 -8.333,3.333 -8.333,8.75c0,5.417 5,10 12.083,10.833c10,0 19.584,-4.166 42.917,-34.583c25,-31.667 30.833,-46.667 30.833,-55.833c0,-7.917 -4.166,-12.917 -10.416,-12.917Z" style="fill:#267049;fill-rule:nonzero;"></path> <path d="M1333.75,605c-5,0 -8.75,3.75 -8.75,9.167c0,5 3.333,7.916 6.667,8.75c-0.834,9.166 -8.75,22.916 -17.5,37.083l-8.75,-45.833l-7.917,0l-23.333,45l-2.917,-52.917l-20.833,0l-2.917,11.667l12.083,0l5,60l8.75,0l24.167,-42.5l8.75,42.5l7.917,0c20.416,-29.167 30,-49.167 30,-60.834c0,-7.083 -4.584,-12.083 -10.417,-12.083Z" style="fill:#267049;fill-rule:nonzero;"></path> <path d="M1410.83,667.083c-2.083,0 -3.75,-2.083 -3.75,-5.416c0,-0.834 0.417,-3.334 0.834,-5.417l5.416,-20.417c1.25,-3.75 1.667,-7.916 1.667,-11.25c0,-12.083 -8.333,-19.583 -18.75,-19.583c-8.75,0 -16.667,6.667 -21.667,14.583l11.667,-50l-25.417,0l-2.916,11.667l12.916,0l-22.083,94.583l13.333,0l8.334,-37.5c3.333,-14.166 11.25,-21.666 19.583,-21.666c5.833,0 10.417,4.166 10.417,10.416c0,2.5 0,4.584 -0.834,7.5l-5.416,20.834c-0.417,2.5 -0.834,5.416 -0.834,7.916c0,7.917 5,13.75 14.167,13.75c8.333,0 14.583,-5.833 17.917,-18.75l-5.834,-2.5c-3.333,8.75 -5.833,11.25 -8.75,11.25Z" style="fill:#267049;fill-rule:nonzero;"></path> <path d="M1469.58,605c-20,0 -36.666,19.167 -36.666,42.5c0,18.75 14.583,29.167 30.833,29.167c9.167,0 15.417,-1.667 22.083,-5l2.5,-13.334c-8.333,4.584 -14.583,6.25 -22.083,6.25c-12.083,0 -20,-7.083 -20,-17.5l0,-2.5l47.917,0.834c1.666,-5.417 2.5,-10 2.5,-14.584c0,-16.25 -10.834,-25.833 -27.084,-25.833Zm12.917,30l-34.583,0c4.166,-11.25 11.666,-18.75 21.25,-18.75c9.166,0 14.166,5.417 14.166,12.917c0,2.083 -0.416,3.75 -0.833,5.833Z" style="fill:#267049;fill-rule:nonzero;"></path> <path d="M1542.92,605c-20,0 -36.667,19.167 -36.667,42.5c0,18.75 14.583,29.167 30.833,29.167c9.167,0 15.417,-1.667 22.084,-5l2.5,-13.334c-8.334,4.584 -14.584,6.25 -22.084,6.25c-12.083,0 -20,-7.083 -20,-17.5l0,-2.5l47.917,0.834c1.667,-5.417 2.5,-10 2.5,-14.584c0,-16.25 -10.833,-25.833 -27.083,-25.833Zm13.333,30l-34.583,0c3.333,-11.25 11.666,-18.75 21.25,-18.75c9.166,0 14.166,5.417 14.166,12.917c0,2.083 -0.416,3.75 -0.833,5.833Z" style="fill:#267049;fill-rule:nonzero;"></path> <path d="M1615.42,569.167l-25.834,0l-2.916,10.833l12.916,0l-19.166,77.5c-0.417,1.667 -0.834,4.167 -0.834,6.25c0,7.5 4.167,12.5 13.334,12.083c7.916,0 15,-4.583 18.75,-16.666l-5.834,-2.084c-3.333,8.334 -6.25,10.417 -9.166,10.417c-2.084,0 -3.75,-1.667 -3.75,-4.583c0,-1.25 0.416,-3.75 0.833,-6.25l21.667,-87.5Z" style="fill:#267049;fill-rule:nonzero;"></path> <path d="M907.083,606.25c-9.166,0 -17.5,6.25 -22.916,13.75l13.75,-51.667l-25.834,0l-2.916,11.667l12.916,0l-24.166,94.583l13.333,0l3.75,-14.166c2.083,9.583 10.417,15.833 20.833,15.833c19.584,0 36.25,-19.167 36.25,-42.5c0,-16.667 -9.166,-27.5 -25,-27.5Zm-12.083,58.75c-10.833,0 -16.667,-7.083 -16.667,-16.667c0,-15.416 11.667,-30 25,-30c9.584,0 15,7.084 15,17.5c0,15 -10.416,29.167 -23.333,29.167Z" style="fill:#267049;fill-rule:nonzero;"></path> <path d="M137.5,361.25l204.583,-204.583c4.167,-3.75 6.25,-9.167 6.25,-14.584l0,-121.25c0,-8.333 -5.416,-15.833 -12.916,-19.166c-7.5,-3.334 -16.667,-1.25 -22.5,4.583l-270,270c-28.75,28.75 -42.5,56.667 -42.917,85.833c0,29.167 13.333,56.667 41.667,85l271.25,271.25c3.75,4.167 9.166,6.25 14.583,6.25c2.5,0 5.417,-0.416 7.917,-2.5c7.916,-3.333 12.916,-10.833 12.916,-19.166l0,-122.5c0,-5.417 -2.5,-10.834 -6.25,-14.584l-204.583,-204.583Zm-80.833,40.417c-10.417,-13.75 -15.417,-26.667 -15.417,-39.167c0.417,-17.5 10.417,-36.25 30.833,-56.667l234.584,-234.583l0,62.917l-216.25,216.25c-16.667,16.666 -27.917,34.166 -33.75,51.25Zm250,251.666l-197.5,-197.5c-0.834,-1.25 -1.667,-2.5 -2.917,-3.75c-6.25,-6.25 -25,-25 2.917,-60l197.5,197.5l0,63.75Z" style="fill:#51bb7b;fill-rule:nonzero;"></path> <path d="M422.083,6.667c-5.833,-5.834 -14.583,-7.917 -22.5,-4.584c-7.916,3.334 -12.916,10.834 -12.916,19.167l0,122.917c0,5.416 2.5,10.833 6.25,14.583l204.583,204.583l-204.583,204.584c-4.167,3.75 -6.25,9.166 -6.25,14.583l0,121.25c0,8.333 5,15.833 12.916,19.167c2.5,1.25 5.417,1.666 7.917,1.666c5.417,0 10.417,-2.083 14.583,-5.833l270,-270c28.75,-28.75 42.5,-56.667 42.917,-85.833c0,-29.167 -13.333,-56.667 -41.667,-85l-271.25,-271.25Zm6.25,128.333l0,-63.75l197.5,197.5c0.834,1.25 1.667,2.5 2.917,3.75c6.25,6.25 25,25 -2.917,60l-197.5,-197.5Zm234.167,283.75l-234.583,234.583l0,-62.5l216.25,-216.666c16.666,-16.667 27.916,-34.167 33.75,-51.25c10.416,13.75 15.416,26.666 15.416,39.166c-0.416,17.5 -10.416,36.25 -30.833,56.667Z" style="fill:#51bb7b;fill-rule:nonzero;"></path> <path d="M536.667,363.333l0,-1.666c0,-8.75 -7.084,-15.834 -15.834,-15.834l-309.583,0c-8.75,0 -15.833,7.084 -15.833,15.834l0,1.666c0,8.75 7.083,15.834 15.833,15.834l309.583,0c8.75,0 15.834,-7.084 15.834,-15.834Z" style="fill:#51bb7b;fill-rule:nonzero;"></path> <path d="M460.833,285.417l-190,0c-8.75,0 -15.833,7.083 -15.833,15.833l0,1.667c0,8.75 7.083,15.833 15.833,15.833l190,0c8.75,0 15.834,-7.083 15.834,-15.833l0,-1.667c0,-8.75 -7.084,-15.833 -15.834,-15.833Z" style="fill:#51bb7b;fill-rule:nonzero;"></path> <path d="M402.083,224.583l-75.416,0c-8.75,0 -15.834,7.084 -15.834,15.834l0,1.666c0,8.75 7.084,15.834 15.834,15.834l75.416,0c8.75,0 15.834,-7.084 15.834,-15.834l0,-1.666c0,-8.75 -7.084,-15.834 -15.834,-15.834Z" style="fill:#51bb7b;fill-rule:nonzero;"></path> <path d="M326.667,468.333c-8.75,0 -15.834,7.084 -15.834,15.834l0,1.666c0,8.75 7.084,15.834 15.834,15.834l75.416,0c8.75,0 15.834,-7.084 15.834,-15.834l0,-1.666c0,-8.75 -7.084,-15.834 -15.834,-15.834l-75.416,0Z" style="fill:#51bb7b;fill-rule:nonzero;"></path> <path d="M476.667,424.583l0,-1.666c0,-8.75 -7.084,-15.834 -15.834,-15.834l-190,0c-8.75,0 -15.833,7.084 -15.833,15.834l0,1.666c0,8.75 7.083,15.834 15.833,15.834l190,0c8.75,0 15.834,-7.084 15.834,-15.834Z" style="fill:#51bb7b;fill-rule:nonzero;"></path> <path d="M984.583,492.5c9.167,0 13.334,-4.167 13.334,-13.333l0,-13.75c0,-3.75 -0.834,-6.667 -2.5,-8.75c-2.084,-2.917 -5.834,-4.167 -10.834,-4.167l-86.25,0l0,-219.167c0,-8.75 -4.583,-13.333 -12.916,-13.333l-17.917,-0.417c-8.75,0 -12.917,4.584 -12.917,13.334l0,246.666c0,9.167 4.167,13.334 12.917,13.334l117.083,-0.417Z" style="fill:#51bb7b;fill-rule:nonzero;"></path> <path d="M1402.5,497.5c30.417,0 58.75,-11.667 82.5,-33.75c2.5,-2.083 3.75,-5 4.167,-7.917c0.833,-3.75 0,-7.916 -2.5,-12.083l-6.667,-10.417c-2.083,-3.75 -4.583,-5.416 -7.083,-5.833c-2.917,-0.417 -5.834,0.833 -9.167,3.75c-19.167,16.25 -39.167,24.583 -59.583,24.583c-55,0 -80,-52.083 -80,-100.416c0,-47.917 24.583,-96.25 80,-96.25c18.75,0 37.083,6.666 54.583,19.583c3.75,2.917 6.667,3.75 9.583,3.333c2.5,-0.416 4.584,-2.5 6.25,-6.25l6.25,-11.25c4.584,-8.333 3.75,-14.583 -2.083,-19.583c-15,-12.083 -40.417,-26.667 -76.25,-26.667c-31.25,0 -58.75,11.25 -80.417,32.917c-25.833,25.833 -39.583,63.333 -39.583,105.417c0,40.416 11.667,75 32.083,99.583c20.834,25.833 51.667,41.25 87.917,41.25Z" style="fill:#51bb7b;fill-rule:nonzero;"></path> <path d="M1722.5,456.25l-72.5,-226.25c-2.5,-7.917 -7.083,-11.667 -15,-11.667l-23.333,0c-7.5,0 -12.5,3.75 -15,11.667l-73.334,226.25l-7.083,21.25c-1.667,5 -1.25,9.167 0.833,12.083c2.5,2.917 6.667,3.75 10,3.75l18.334,0c7.916,0 12.916,-3.75 15,-12.083l7.916,-25l10.417,-33.333l87.917,0l10.416,33.333l8.334,25.417c2.5,7.916 7.083,11.666 15,11.666l18.333,0c5,0 8.333,-1.25 10,-3.75c2.083,-2.916 2.083,-6.666 0.417,-11.666l-6.667,-21.667Zm-132.5,-70l33.333,-119.583l2.5,10.833l30.834,109.167l-66.667,0l0,-0.417Z" style="fill:#51bb7b;fill-rule:nonzero;"></path> <path d="M1906.25,456.25c-2.083,-2.917 -6.25,-4.583 -11.667,-4.583l-85.833,0l0,-218.75c0,-9.584 -4.583,-14.167 -13.75,-14.167l-17.5,0c-9.167,0 -13.75,5 -13.75,14.167l0,246.666c0,9.584 4.167,14.167 13.75,14.167l117.083,0c9.584,0 14.167,-4.583 14.167,-14.167l0,-13.75c0,-4.166 -0.833,-7.5 -2.5,-9.583Z" style="fill:#51bb7b;fill-rule:nonzero;"></path> <path d="M1126.67,217.5c-68.75,0 -119.167,59.583 -119.167,136.667c0,40.833 13.333,76.666 35.833,102.083c20.834,23.75 50,38.333 83.334,38.333c33.333,0 62.5,-14.583 83.333,-38.333c22.083,-25.417 35.417,-61.25 35.417,-102.083c0,-77.084 -50,-136.667 -118.75,-136.667Zm0,238.75c-47.5,0 -79.167,-44.167 -79.167,-102.083c0,-55.834 31.667,-98.334 79.167,-98.334c47.5,0 78.75,42.5 78.75,98.334c0.416,57.5 -31.25,102.083 -78.75,102.083Z" style="fill:#51bb7b;fill-rule:nonzero;"></path> </g> </svg>