<?xml version="1.0" encoding="UTF-8" standalone="no"?>
<!DOCTYPE svg PUBLIC "-//W3C//DTD SVG 1.1//EN" "http://www.w3.org/Graphics/SVG/1.1/DTD/svg11.dtd">
<svg width="100%" height="100%" viewBox="0 0 1920 1080" version="1.1" xmlns="http://www.w3.org/2000/svg" xmlns:xlink="http://www.w3.org/1999/xlink" xml:space="preserve" xmlns:serif="http://www.serif.com/" style="fill-rule:evenodd;clip-rule:evenodd;stroke-linejoin:round;stroke-miterlimit:2;fill:#101820">
	<g transform="matrix(0.796929,0,0,0.753486,199.694,98.1518)">
			<path d="M2158.67,953.141L-250.579,220.987L-250.579,-130.263L2158.67,-130.263L2158.67,953.141Z"/>
	</g>
	<g transform="matrix(-0.796929,-9.75957e-17,9.22755e-17,-0.753486,1720.31,981.848)">
			<path d="M2158.67,953.141L-250.579,220.987L-250.579,-130.263L2158.67,-130.263L2158.67,953.141Z" style="fill:#fcfcfc;"/>
	</g>
	<g transform="matrix(16.5437,0,0,16.5437,513.319,271.992)">
			<path d="M27,0C19.8,0 15.3,3.6 13.5,10.8C16.2,7.2 19.35,5.85 22.95,6.75C25.004,7.263 26.472,8.754 28.097,10.403C30.744,13.09 33.808,16.2 40.5,16.2C47.7,16.2 52.2,12.6 54,5.4C51.3,9 48.15,10.35 44.55,9.45C42.496,8.937 41.028,7.446 39.403,5.797C36.756,3.11 33.692,0 27,0Z" style="fill:#fcfcfc;"/>
	</g>
	<g transform="matrix(16.5437,0,0,16.5437,513.319,271.992)">
			<path d="M13.5,16.2C6.3,16.2 1.8,19.8 0,27C2.7,23.4 5.85,22.05 9.45,22.95C11.504,23.464 12.972,24.954 14.597,26.603C17.244,29.29 20.308,32.4 27,32.4C34.2,32.4 38.7,28.8 40.5,21.6C37.8,25.2 34.65,26.55 31.05,25.65C28.996,25.137 27.528,23.646 25.903,21.997C23.256,19.31 20.192,16.2 13.5,16.2Z" />
	</g>
</svg>
