<?xml version="1.0" encoding="UTF-8" standalone="no"?>
<!DOCTYPE svg PUBLIC "-//W3C//DTD SVG 1.1//EN" "http://www.w3.org/Graphics/SVG/1.1/DTD/svg11.dtd"><svg width="100%"
  height="100%" viewBox="0 0 123 123" version="1.1" xmlns="http://www.w3.org/2000/svg"
  xmlns:xlink="http://www.w3.org/1999/xlink" xml:space="preserve" xmlns:serif="http://www.serif.com/"
  style="fill-rule:evenodd;clip-rule:evenodd;stroke-linejoin:round;stroke-miterlimit:2;">
  <path
    d="M122.812,32.18c-0,-17.657 -14.334,-31.992 -31.992,-31.992l-58.639,-0c-17.657,-0 -31.992,14.335 -31.992,31.992l-0,58.64c-0,17.657 14.335,31.992 31.992,31.992l58.639,-0.001c17.658,0.001 31.992,-14.334 31.992,-31.991l-0,-58.64Z"
    style="fill:#f78c28;" />
  <path
    d="M78.789,64.474l0,25.966l8.323,0l0,-58.257l-8.323,0l0,24.302l-34.954,0l0,-24.302l-8.323,0l0,58.257l8.323,0l0,-25.966l34.954,0Z"
    style="fill:#160d27;fill-rule:nonzero;" />
  <rect x="35.512" y="102.676" width="51.599" height="5.722" style="fill:#160d27;" />
</svg>
