<?xml version="1.0" encoding="UTF-8" standalone="no"?>
<!DOCTYPE svg PUBLIC "-//W3C//DTD SVG 1.1//EN" "http://www.w3.org/Graphics/SVG/1.1/DTD/svg11.dtd"><svg width="100%"
  height="100%" viewBox="0 0 302 323" version="1.1" xmlns="http://www.w3.org/2000/svg"
  xmlns:xlink="http://www.w3.org/1999/xlink" xml:space="preserve" xmlns:serif="http://www.serif.com/"
  style="fill-rule:evenodd;clip-rule:evenodd;stroke-linejoin:round;stroke-miterlimit:2;">
  <g>
    <path
      d="M161.822,283.872c-79.831,0 -139.322,-56.254 -139.322,-130.686c0,-74.432 59.491,-130.686 139.322,-130.686c79.831,0 139.322,56.254 139.322,130.686c0,36.937 -14.806,69.128 -39.472,92.528l21.157,30.941c10.468,15.018 7.445,26.534 2.325,33.702c-4.412,6.177 -13.426,11.627 -26.693,11.712l-0.314,0.001l-45.838,0c-12.245,0 -24.459,-4.963 -33.031,-16.596c-0.043,-0.058 -0.085,-0.117 -0.128,-0.176l-15.412,-21.432l-1.916,0.006Zm0,-164.084c-18.787,0 -34.063,13.757 -34.063,33.398c0,19.641 15.276,33.398 34.063,33.398l0.22,-0.001c18.686,-0.106 33.842,-13.833 33.842,-33.397c0,-19.564 -15.156,-33.291 -33.842,-33.398l-0.22,0Z"
      style="fill:#b4cfdb;fill-rule:nonzero;" />
    <path
      d="M141.238,261.366l-1.916,0.006c-79.831,0 -139.322,-56.254 -139.322,-130.686c0,-74.432 59.491,-130.686 139.322,-130.686c79.831,0 139.322,56.254 139.322,130.686c0,36.937 -14.806,69.128 -39.472,92.528l21.157,30.941c10.468,15.018 7.445,26.534 2.325,33.702c-4.447,6.225 -13.568,11.713 -27.007,11.713l-45.838,0c-12.245,0 -24.459,-4.963 -33.031,-16.596c-0.043,-0.058 -0.085,-0.117 -0.128,-0.176l-15.412,-21.432Zm72.819,-41.663c28.233,-20.261 45.837,-51.816 45.837,-89.017c0,-64.106 -51.816,-111.936 -120.572,-111.936c-68.756,0 -120.572,47.83 -120.572,111.936c0,64.106 51.816,111.936 120.572,111.936c3.986,0 7.639,0 11.293,-0.332l21.258,29.561c4.65,6.311 11.293,8.969 17.936,8.969l45.838,0c11.293,0 16.939,-4.983 9.3,-15.944l-30.89,-45.173Z"
      style="fill:url(#_Linear1);" />
    <path
      d="M86.509,130.686c0,-30.558 23.583,-52.148 52.813,-52.148c29.23,0 52.812,21.59 52.812,52.148c0,30.558 -23.582,52.148 -52.812,52.148c-26.954,0 -49.106,-18.359 -52.392,-45.179c-0.278,-2.265 -0.421,-4.59 -0.421,-6.969Zm18.75,0c0,-19.641 15.276,-33.398 34.063,-33.398c18.787,0 34.062,13.757 34.062,33.398c0,19.641 -15.275,33.398 -34.062,33.398c-18.787,0 -34.063,-13.757 -34.063,-33.398Z"
      style="fill:url(#_Linear2);" />
  </g>
  <defs>
    <linearGradient id="_Linear1" x1="0" y1="0" x2="1" y2="0" gradientUnits="userSpaceOnUse"
      gradientTransform="matrix(165.438,165.438,-165.438,165.438,60.2882,44.6816)">
      <stop offset="0" style="stop-color:#f35f3b;stop-opacity:1" />
      <stop offset="1" style="stop-color:#0f4263;stop-opacity:1" />
    </linearGradient>
    <linearGradient id="_Linear2" x1="0" y1="0" x2="1" y2="0" gradientUnits="userSpaceOnUse"
      gradientTransform="matrix(165.438,165.438,-165.438,165.438,60.2882,44.6816)">
      <stop offset="0" style="stop-color:#f35f3b;stop-opacity:1" />
      <stop offset="1" style="stop-color:#0f4263;stop-opacity:1" />
    </linearGradient>
  </defs>
</svg>
