<svg xmlns="http://www.w3.org/2000/svg" xmlns:xlink="http://www.w3.org/1999/xlink" width="100%" height="100%" viewBox="0 0 512 93" xml:space="preserve" style="fill-rule:evenodd;clip-rule:evenodd;stroke-linejoin:round;stroke-miterlimit:1.41421;"> <path d="M32.133,22.9c5.739,0 10.998,2.075 15.087,5.504l5.557,-6.624c-5.587,-4.696 -12.788,-7.532 -20.642,-7.532c-17.72,0 -32.135,14.416 -32.135,32.134c0,17.722 14.416,32.138 32.137,32.132c7.854,0 15.054,-2.836 20.641,-7.532l-5.557,-6.624c-4.22,3.557 -9.567,5.508 -15.086,5.504c-12.947,0 -23.482,-10.533 -23.482,-23.48c-0.001,-12.946 10.535,-23.485 23.484,-23.482l-0.004,0Zm177.877,-6.796l-17.302,0c-2.372,0.001 -4.323,1.952 -4.324,4.324l0,51.907c0.002,2.372 1.952,4.323 4.324,4.325l17.303,0c16.697,0 30.279,-13.583 30.279,-30.279c0,-16.698 -13.58,-30.281 -30.283,-30.277l0.004,0l-0.001,0Zm0,51.907l-12.976,0l0,-43.256l12.977,0c11.926,0 21.623,9.706 21.623,21.629c0.005,11.931 -9.697,21.624 -21.627,21.627l0.004,0l-0.001,0Zm53.702,-47.581l0,51.907c0.002,2.372 1.953,4.322 4.325,4.324l36.048,0l0,-8.65l-31.72,0l0,-17.304l20.185,0l0,-8.65l-20.186,0l0,-17.303l31.72,0l0,-8.65l-36.047,0c-0.001,0 -0.003,0 -0.004,0c-2.368,0 -4.316,1.948 -4.316,4.316c0,0.003 0,0.005 0,0.008l-0.005,0l0,0.002Zm130.937,0l0,51.907c0.002,2.372 1.953,4.322 4.325,4.324l36.046,0l0,-8.65l-31.72,0l0,-17.304l20.186,0l0,-8.65l-20.186,0l0,-17.303l31.72,0l0,-8.65l-36.044,0c-0.002,0 -0.003,0 -0.005,0c-2.37,0 -4.32,1.95 -4.32,4.32c0,0.001 0,0.003 0,0.004l-0.001,0l-0.001,0.002Zm-41.166,-4.326l-18.746,0c-2.372,0.001 -4.323,1.952 -4.324,4.324l0,56.233l8.652,0l0,-25.954l14.419,0c9.54,0 17.302,-7.762 17.302,-17.301c-0.001,-9.54 -7.763,-17.306 -17.307,-17.302l0.004,0Zm0,25.952l-14.42,0l0,-17.3l14.42,0c4.77,0 8.649,3.877 8.649,8.65c0,4.773 -3.879,8.654 -8.653,8.65l0.004,0Zm149.167,-25.952l0,44.285l-35.607,-42.73c-1.162,-1.397 -3.087,-1.918 -4.795,-1.298c-1.708,0.619 -2.853,2.25 -2.854,4.067l0,56.233l8.652,0l0,-44.284l35.607,42.728c1.161,1.395 3.084,1.916 4.79,1.296c1.708,-0.619 2.853,-2.25 2.854,-4.067l0,-56.233l-8.647,0l0,0.003Zm-338.841,15.531c-0.021,-0.112 -0.04,-0.224 -0.07,-0.333c-0.018,-0.066 -0.04,-0.128 -0.062,-0.193c-0.03,-0.097 -0.064,-0.193 -0.102,-0.288c-0.027,-0.066 -0.058,-0.13 -0.088,-0.193c-0.041,-0.09 -0.086,-0.177 -0.135,-0.263c-0.035,-0.063 -0.075,-0.123 -0.113,-0.184c-0.145,-0.225 -0.313,-0.435 -0.5,-0.626c-0.052,-0.052 -0.104,-0.105 -0.16,-0.156c-0.072,-0.066 -0.147,-0.128 -0.224,-0.187c-0.06,-0.046 -0.118,-0.093 -0.18,-0.136c-0.023,-0.016 -0.042,-0.035 -0.066,-0.05l-42.173,-28.116c-1.329,-0.887 -3.069,-0.887 -4.398,0l-42.175,28.115c-0.024,0.015 -0.043,0.034 -0.066,0.05c-0.062,0.044 -0.12,0.09 -0.18,0.135c-0.137,0.103 -0.265,0.218 -0.383,0.342c-0.19,0.191 -0.358,0.402 -0.501,0.63c-0.039,0.061 -0.077,0.12 -0.113,0.184c-0.05,0.086 -0.093,0.174 -0.134,0.261c-0.03,0.064 -0.062,0.128 -0.089,0.193c-0.038,0.095 -0.072,0.191 -0.103,0.288c-0.02,0.065 -0.043,0.128 -0.06,0.187c-0.03,0.109 -0.05,0.22 -0.07,0.333c-0.011,0.057 -0.025,0.113 -0.032,0.171c-0.023,0.172 -0.035,0.345 -0.035,0.518l0,28.123c0,0.174 0.012,0.348 0.037,0.518c0.009,0.062 0.025,0.112 0.037,0.172c0.02,0.112 0.038,0.223 0.075,0.335c0.017,0.062 0.037,0.125 0.062,0.193c0.031,0.1 0.062,0.199 0.1,0.29c0.026,0.062 0.062,0.124 0.086,0.186c0.112,0.244 0.254,0.473 0.423,0.682c0.043,0.062 0.087,0.112 0.137,0.172c0.063,0.074 0.124,0.149 0.198,0.215c0.051,0.05 0.1,0.111 0.162,0.149c0.072,0.062 0.15,0.124 0.224,0.189c0.06,0.05 0.124,0.087 0.174,0.135c0.023,0.012 0.037,0.037 0.062,0.049l42.164,28.13c0.666,0.448 1.43,0.672 2.2,0.668c0.783,-0.002 1.548,-0.234 2.2,-0.667l42.175,-28.117c0.023,-0.014 0.043,-0.032 0.065,-0.048c0.063,-0.044 0.121,-0.09 0.18,-0.136c0.078,-0.06 0.154,-0.124 0.226,-0.188c0.054,-0.049 0.106,-0.102 0.159,-0.154c0.119,-0.121 0.23,-0.25 0.331,-0.387c0.1,-0.137 0.193,-0.278 0.28,-0.423c0.051,-0.086 0.095,-0.175 0.137,-0.264c0.03,-0.064 0.06,-0.127 0.088,-0.192c0.038,-0.095 0.072,-0.192 0.102,-0.29c0.021,-0.064 0.043,-0.127 0.062,-0.192c0.029,-0.11 0.049,-0.221 0.07,-0.333c0.01,-0.057 0.025,-0.113 0.03,-0.171c0.023,-0.172 0.036,-0.343 0.036,-0.519l0,-28.117c-0.001,-0.173 -0.013,-0.346 -0.035,-0.518c-0.01,-0.061 -0.029,-0.111 -0.041,-0.172l0.006,0Zm-46.073,24.129l-14.024,-9.38l14.024,-9.382l14.026,9.382l-14.026,9.38l0,0Zm-3.964,-25.65l-17.192,11.499l-13.877,-9.283l31.07,-20.713l0,18.497l-0.001,0Zm-24.324,16.268l-9.919,6.635l0,-13.27l9.92,6.635l-0.001,0Zm7.132,4.775l17.192,11.498l0,18.495l-31.07,-20.715l13.878,-9.282l0,0.004Zm25.122,11.495l17.192,-11.498l13.878,9.282l-31.07,20.713l0,-18.497l0,0Zm24.324,-16.267l9.92,-6.636l0,13.27l-9.92,-6.637l0,0.003Zm-7.132,-4.772l-17.192,-11.498l0,-18.498l31.07,20.713l-13.878,9.283l0,0Z" style="fill-rule:nonzero;"></path> </svg>