<svg xmlns="http://www.w3.org/2000/svg" xmlns:xlink="http://www.w3.org/1999/xlink" width="100%" height="100%" viewBox="0 0 736 206" xml:space="preserve" style="fill-rule:evenodd;clip-rule:evenodd;stroke-linejoin:round;stroke-miterlimit:1.41421;"> <g transform="matrix(3.125,0,0,3.125,0,0)"> <g transform="matrix(1,0,0,1,-259.744,-333.064)"> <path d="M292.807,340.387C278.72,340.387 267.3,351.807 267.3,365.894C267.3,379.981 278.72,391.401 292.807,391.401C306.894,391.401 318.314,379.981 318.314,365.894C318.314,351.807 306.894,340.387 292.807,340.387M313.2,355.391C311.581,355.196 309.986,355.456 308.536,356.174C305.754,357.549 304.555,360.12 303.496,362.389L303.379,362.639C302.732,364.023 301.57,365.498 299.592,365.36C299.544,364.67 299.394,364.009 299.155,363.391C301.47,361.522 302.145,358.518 300.881,355.2L300.781,354.938C299.971,352.818 299.272,350.988 299.879,349.15C300.548,347.125 302.293,346.219 303.638,345.816L303.587,345.643C307.696,347.839 311.058,351.249 313.2,355.391M314.792,372.462C313.792,371.267 312.506,370.387 311.008,369.904C308.053,368.953 305.353,369.924 302.97,370.781L302.706,370.876C301.238,371.402 299.339,371.64 298.027,370.201C298.45,369.697 298.8,369.133 299.063,368.521C299.325,368.55 299.584,368.57 299.84,368.57C302.541,368.57 304.897,366.944 306.276,363.994L306.395,363.741C307.352,361.69 308.178,359.919 309.954,359.041C311.772,358.141 313.547,358.58 314.734,359.12C315.397,361.262 315.755,363.537 315.755,365.894C315.755,368.176 315.416,370.38 314.792,372.462M292.819,369.435C290.835,369.435 289.221,367.821 289.221,365.837C289.221,363.853 290.835,362.239 292.819,362.239C294.803,362.239 296.417,363.853 296.417,365.837C296.417,367.821 294.803,369.435 292.819,369.435M279.4,367.818L279.282,368.069C278.325,370.121 277.499,371.893 275.723,372.771C273.908,373.669 272.135,373.23 270.967,372.703L270.923,372.801C270.233,370.62 269.859,368.3 269.859,365.894C269.859,363.598 270.202,361.382 270.832,359.289C271.84,360.516 273.144,361.416 274.668,361.907C277.624,362.859 280.325,361.888 282.707,361.03L282.97,360.936C284.408,360.42 286.259,360.182 287.567,361.524C287.135,362.05 286.783,362.643 286.523,363.283C283.537,362.986 280.895,364.621 279.4,367.818M299.918,344.079C298.454,345.091 297.394,346.477 296.842,348.147C295.878,351.066 296.895,353.729 297.793,356.079L297.892,356.338C298.419,357.723 298.669,359.504 297.319,360.753C296.769,360.266 296.143,359.861 295.455,359.571C295.665,356.697 293.982,354.158 290.769,352.703L290.51,352.585C288.396,351.631 286.571,350.806 285.659,349.059C284.668,347.16 285.232,345.322 285.879,344.114L285.768,344.055C287.987,343.338 290.352,342.946 292.807,342.946C295.289,342.946 297.677,343.347 299.918,344.079M282.019,345.647C281.759,347.338 282.026,349.01 282.824,350.539C284.247,353.266 286.875,354.453 289.192,355.5L289.449,355.616C290.809,356.232 292.262,357.304 292.277,359.068C291.52,359.128 290.798,359.308 290.131,359.595C288.218,357.39 285.203,356.737 281.89,357.925L281.625,358.021C279.448,358.804 277.567,359.481 275.648,358.863C273.725,358.243 272.784,356.74 272.329,355.557C274.464,351.343 277.859,347.873 282.019,345.647M272.421,376.411C272.786,376.457 273.15,376.483 273.511,376.483C274.772,376.483 276.002,376.201 277.141,375.638C279.923,374.262 281.122,371.691 282.181,369.422L282.297,369.173C282.941,367.797 284.095,366.331 286.054,366.45C286.115,367.14 286.279,367.798 286.531,368.413C284.208,370.282 283.53,373.289 284.796,376.612L284.895,376.872C285.705,378.992 286.404,380.823 285.797,382.662C285.128,384.687 283.384,385.593 282.038,385.996L282.093,386.179C277.959,383.986 274.574,380.568 272.421,376.411M285.761,387.731C287.223,386.719 288.283,385.334 288.834,383.665C289.798,380.745 288.781,378.081 287.883,375.731L287.785,375.473C287.25,374.07 287.001,372.259 288.414,371.007C288.954,371.468 289.566,371.846 290.232,372.121C289.966,375.044 291.65,377.633 294.908,379.109L295.166,379.226C297.28,380.181 299.105,381.005 300.017,382.753C301.009,384.652 300.445,386.49 299.797,387.697L299.857,387.729C297.635,388.449 295.266,388.842 292.807,388.842C290.349,388.842 287.983,388.449 285.761,387.731M303.665,386.105C303.91,384.435 303.641,382.783 302.853,381.272C301.429,378.545 298.801,377.358 296.483,376.311L296.227,376.196C294.832,375.564 293.343,374.45 293.404,372.604C294.124,372.543 294.813,372.373 295.451,372.105C297.358,374.401 300.419,375.095 303.786,373.886L304.053,373.79C306.23,373.008 308.109,372.331 310.028,372.949C311.908,373.555 312.849,375.005 313.316,376.172C311.193,380.389 307.813,383.868 303.665,386.105" style="fill:rgb(80,198,219);fill-rule:nonzero;"></path> </g> <g transform="matrix(1,0,0,1,-259.744,-333.064)"> <path d="M292.807,333.408C274.866,333.408 260.321,347.952 260.321,365.894C260.321,383.835 274.866,398.38 292.807,398.38C310.748,398.38 325.293,383.835 325.293,365.894C325.293,347.952 310.748,333.408 292.807,333.408M292.807,394.302C277.143,394.302 264.399,381.558 264.399,365.894C264.399,350.23 277.143,337.486 292.807,337.486C308.471,337.486 321.215,350.23 321.215,365.894C321.215,381.558 308.471,394.302 292.807,394.302" style="fill:rgb(80,198,219);fill-rule:nonzero;"></path> </g> <g transform="matrix(1,0,0,1,-259.744,-333.064)"> <path d="M319.822,339.102C316.779,336.031 312.857,333.777 309.332,333.073C309.114,333.028 308.896,333.156 308.828,333.368C308.759,333.58 308.86,333.811 309.063,333.904C312.384,335.425 315.605,337.709 318.378,340.508C321.174,343.329 323.44,346.598 324.932,349.962C325.004,350.124 325.164,350.223 325.334,350.223C325.378,350.223 325.423,350.217 325.467,350.202C325.681,350.134 325.809,349.916 325.765,349.697C325.016,345.977 322.906,342.214 319.822,339.102" style="fill:rgb(80,198,219);fill-rule:nonzero;"></path> </g> <g transform="matrix(1,0,0,1,-259.744,-333.064)"> <path d="M276.455,397.888C273.134,396.366 269.913,394.082 267.14,391.284C264.343,388.462 262.077,385.193 260.586,381.83C260.495,381.624 260.264,381.521 260.05,381.589C259.837,381.657 259.708,381.875 259.753,382.095C260.501,385.815 262.612,389.578 265.696,392.69C268.739,395.761 272.661,398.015 276.186,398.719C276.215,398.725 276.243,398.728 276.272,398.728C276.459,398.728 276.63,398.608 276.69,398.423C276.759,398.211 276.658,397.981 276.455,397.888" style="fill:rgb(80,198,219);fill-rule:nonzero;"></path> </g> <g transform="matrix(1,0,0,1,-259.744,-333.064)"> <path d="M351.504,352.975L339.526,352.975C339.14,352.975 338.827,353.288 338.827,353.675L338.827,378.322C338.827,378.708 339.14,379.021 339.526,379.021L341.925,379.021C342.311,379.021 342.625,378.708 342.625,378.322L342.625,367.844L350.382,367.844C350.768,367.844 351.081,367.53 351.081,367.144L351.081,364.745C351.081,364.359 350.768,364.045 350.382,364.045L342.625,364.045L342.625,356.773L351.504,356.773C351.89,356.773 352.204,356.46 352.204,356.074L352.204,353.675C352.204,353.288 351.89,352.975 351.504,352.975" style="fill:rgb(80,198,219);fill-rule:nonzero;"></path> </g> <g transform="matrix(1,0,0,1,-259.744,-333.064)"> <path d="M369.988,375.223L361.109,375.223L361.109,353.674C361.109,353.288 360.795,352.975 360.409,352.975L358.01,352.975C357.624,352.975 357.311,353.288 357.311,353.674L357.311,378.321C357.311,378.708 357.624,379.021 358.01,379.021L369.988,379.021C370.374,379.021 370.688,378.708 370.688,378.321L370.688,375.923C370.688,375.536 370.374,375.223 369.988,375.223" style="fill:rgb(80,198,219);fill-rule:nonzero;"></path> </g> <g transform="matrix(1,0,0,1,-259.744,-333.064)"> <path d="M386.751,352.882L384.091,352.882C383.834,352.882 383.597,353.023 383.475,353.249L378.054,363.274L372.519,353.244C372.396,353.021 372.161,352.882 371.906,352.882L369.233,352.882C368.986,352.882 368.758,353.012 368.632,353.224C368.505,353.436 368.501,353.699 368.618,353.916L376.103,367.677L376.103,378.321C376.103,378.708 376.417,379.021 376.803,379.021L379.202,379.021C379.588,379.021 379.901,378.708 379.901,378.321L379.901,367.925L387.368,353.911C387.484,353.694 387.478,353.432 387.351,353.221C387.224,353.011 386.997,352.882 386.751,352.882" style="fill:rgb(80,198,219);fill-rule:nonzero;"></path> </g> <g transform="matrix(1,0,0,1,-259.744,-333.064)"> <path d="M494.54,375.223L485.66,375.223L485.66,353.674C485.66,353.288 485.347,352.975 484.961,352.975L482.562,352.975C482.176,352.975 481.862,353.288 481.862,353.674L481.862,378.321C481.862,378.708 482.176,379.021 482.562,379.021L494.54,379.021C494.926,379.021 495.24,378.708 495.24,378.321L495.24,375.923C495.24,375.536 494.926,375.223 494.54,375.223" style="fill:rgb(80,198,219);fill-rule:nonzero;"></path> </g> <g transform="matrix(1,0,0,1,-259.744,-333.064)"> <path d="M437.151,352.975L434.752,352.975C434.366,352.975 434.053,353.288 434.053,353.675L434.053,364.045L425.463,364.045L425.463,353.675C425.463,353.288 425.15,352.975 424.764,352.975L422.365,352.975C421.979,352.975 421.665,353.288 421.665,353.675L421.665,378.322C421.665,378.708 421.979,379.021 422.365,379.021L424.764,379.021C425.15,379.021 425.463,378.708 425.463,378.322L425.463,367.844L434.053,367.844L434.053,378.322C434.053,378.708 434.366,379.021 434.752,379.021L437.151,379.021C437.537,379.021 437.851,378.708 437.851,378.322L437.851,353.675C437.851,353.288 437.537,352.975 437.151,352.975" style="fill:rgb(80,198,219);fill-rule:nonzero;"></path> </g> <g transform="matrix(1,0,0,1,-259.744,-333.064)"> <path d="M456.49,352.975L444.339,352.975C443.953,352.975 443.64,353.288 443.64,353.675L443.64,378.322C443.64,378.708 443.953,379.021 444.339,379.021L456.49,379.021C456.876,379.021 457.19,378.708 457.19,378.322L457.19,375.923C457.19,375.537 456.876,375.223 456.49,375.223L447.438,375.223L447.438,367.844L455.314,367.844C455.701,367.844 456.014,367.53 456.014,367.144L456.014,364.745C456.014,364.359 455.701,364.045 455.314,364.045L447.438,364.045L447.438,356.773L456.49,356.773C456.876,356.773 457.19,356.46 457.19,356.074L457.19,353.675C457.19,353.288 456.876,352.975 456.49,352.975" style="fill:rgb(80,198,219);fill-rule:nonzero;"></path> </g> <g transform="matrix(1,0,0,1,-259.744,-333.064)"> <path d="M475.643,352.975L463.492,352.975C463.106,352.975 462.793,353.288 462.793,353.675L462.793,378.322C462.793,378.708 463.106,379.021 463.492,379.021L475.643,379.021C476.029,379.021 476.343,378.708 476.343,378.322L476.343,375.923C476.343,375.537 476.029,375.223 475.643,375.223L466.591,375.223L466.591,367.844L474.492,367.844C474.878,367.844 475.191,367.53 475.191,367.144L475.191,364.745C475.191,364.359 474.878,364.045 474.492,364.045L466.591,364.045L466.591,356.773L475.643,356.773C476.029,356.773 476.343,356.46 476.343,356.074L476.343,353.675C476.343,353.288 476.029,352.975 475.643,352.975" style="fill:rgb(80,198,219);fill-rule:nonzero;"></path> </g> <g transform="matrix(1,0,0,1,-259.744,-333.064)"> <path d="M416.759,352.967L414.133,352.967C413.9,352.967 413.698,353.127 413.646,353.354L409.596,370.804L405.473,353.352C405.42,353.126 405.218,352.967 404.987,352.967L402.347,352.967C402.115,352.967 401.914,353.126 401.861,353.352L397.734,370.781L393.682,353.354C393.629,353.127 393.427,352.967 393.195,352.967L390.568,352.967C390.415,352.967 390.271,353.036 390.176,353.156C390.082,353.275 390.047,353.431 390.081,353.58L395.911,378.65C395.925,378.733 395.959,378.813 396.013,378.881C396.108,379 396.252,379.07 396.405,379.07L399.034,379.07C399.266,379.07 399.467,378.91 399.52,378.685L403.665,361.175L407.802,378.685C407.855,378.91 408.056,379.07 408.288,379.07L410.933,379.07C411.166,379.07 411.368,378.909 411.42,378.683L417.246,353.58C417.28,353.431 417.245,353.275 417.15,353.156C417.056,353.036 416.912,352.967 416.759,352.967" style="fill:rgb(80,198,219);fill-rule:nonzero;"></path> </g> </g> </svg>