<?xml version="1.0" encoding="UTF-8" standalone="no"?><!DOCTYPE svg PUBLIC "-//W3C//DTD SVG 1.1//EN" "http://www.w3.org/Graphics/SVG/1.1/DTD/svg11.dtd"><svg width="100%" height="100%" viewBox="0 0 1326 401" version="1.1" xmlns="http://www.w3.org/2000/svg" xmlns:xlink="http://www.w3.org/1999/xlink" xml:space="preserve" xmlns:serif="http://www.serif.com/" style="fill-rule:evenodd;clip-rule:evenodd;stroke-linejoin:round;stroke-miterlimit:2;"><path d="M886.367,199.558c0,6.451 0,15.726 -1.213,18.951l-138.302,0c6.45,23.389 24.999,37.907 50.401,37.907c20.969,0.402 36.291,-8.872 47.176,-22.181l34.274,31.858c-16.934,21.371 -45.561,37.096 -85.078,37.096c-57.659,0 -101.207,-40.322 -101.207,-102.016c0,-59.676 41.531,-101.211 97.579,-101.211c57.658,0 96.37,41.938 96.37,99.596Zm-94.76,-53.225c-21.366,0 -38.305,11.695 -44.353,34.275l86.693,0c-5.243,-20.562 -19.354,-34.275 -42.34,-34.275Zm233.462,-46.371c42.344,0 71.772,22.585 71.772,83.065l-0,116.937l-52.821,0l-0,-103.631c-0,-37.5 -13.301,-49.19 -37.903,-49.19c-26.603,0 -44.752,18.544 -44.752,53.628l-0,99.193l-52.822,0l-0,-196.776l52.822,0l-0,25.407l0.803,0c16.126,-18.95 38.716,-28.633 62.901,-28.633Zm195.968,203.227c-62.494,0 -104.432,-42.743 -104.432,-101.613c-0,-58.87 41.938,-101.614 104.432,-101.614c61.295,0 104.838,41.133 104.838,101.614c-0,60.481 -43.543,101.613 -104.838,101.613Zm-0,-47.18c28.626,0 51.215,-22.58 51.215,-54.433c-0,-32.256 -21.776,-54.433 -51.215,-54.433c-30.648,0 -51.205,23.385 -51.205,54.433c-0,30.645 21.37,54.433 51.205,54.433Zm-720.63,43.955l-0,-200.002l72.302,0c63.266,0 103.936,41.128 103.936,100.283c-0,58.873 -38.128,99.719 -103.088,99.719l-73.15,0Zm51.968,-47.607l17.511,0c30.503,0 50.555,-23.38 50.555,-52.112c-0,-29.86 -20.335,-52.676 -46.602,-52.676l-21.464,0l-0,104.788Z"/><circle cx="200.007" cy="200.007" r="200.007" style="fill:#fff;"/><path id="outline" d="M261.684,245.149c33.861,1.662 69.225,-13.535 80.203,-43.776c10.978,-30.241 6.721,-60.148 -32.661,-78.086c-39.381,-17.944 -57.569,-39.272 -89.385,-52.14c-20.787,-8.408 -43.915,-3.418 -67.664,9.707c-63.963,35.351 -121.274,147.038 -94.858,250.518c0.379,1.419 -0.257,2.903 -1.544,3.615c-1.279,0.704 -2.885,0.439 -3.877,-0.64c-35.616,-39.287 -55.657,-92.559 -51.305,-149.556c8.405,-110.063 104.585,-192.597 214.648,-184.192c110.055,8.404 192.589,104.583 184.184,214.646c-3.529,46.221 -22.535,87.584 -51.559,119.399c-22.195,22.8 -50.473,32.935 -74.07,32.516c-17.107,-0.303 -33.839,-7.112 -45.409,-17.066c-16.516,-14.228 -23.191,-30.485 -25.474,-48.635c-0.572,-4.507 -0.236,-16.797 2.112,-25.309c1.745,-6.343 6.185,-18.599 12.676,-23.957c-7.595,-3.266 -17.361,-10.388 -20.446,-13.805c-0.753,-0.838 -0.652,-2.156 0.026,-3.057c0.671,-0.909 1.866,-1.262 2.925,-0.88c6.528,2.239 14.477,4.444 22.86,5.851c11.021,1.844 24.729,4.159 38.618,4.847Zm-68.907,-160.063c10.789,-0.846 20.202,8.363 21.825,20.609c2.164,16.314 -3.822,33.166 -23.511,33.554c-16.819,0.335 -21.915,-16.625 -20.8,-26.9c1.107,-10.275 9.577,-26.25 22.486,-27.263Z"/></svg>