<?xml version="1.0" encoding="UTF-8" standalone="no"?>
<!DOCTYPE svg PUBLIC "-//W3C//DTD SVG 1.1//EN" "http://www.w3.org/Graphics/SVG/1.1/DTD/svg11.dtd">
<svg width="100%" height="100%" viewBox="0 0 1366 441" version="1.1" xmlns="http://www.w3.org/2000/svg" xmlns:xlink="http://www.w3.org/1999/xlink" xml:space="preserve" xmlns:serif="http://www.serif.com/" style="fill-rule:evenodd;clip-rule:evenodd;stroke-linejoin:round;stroke-miterlimit:2;">
    <g id="background" transform="matrix(1.02631,-2.08167e-17,2.08167e-17,1.02631,-0.525787,-0.524819)">
        <path d="M37.965,296.635C26.441,271.766 20.009,244.065 20.009,214.873C20.009,207.318 20.439,199.863 21.278,192.531C22.129,185.123 23.39,177.852 25.036,170.742C34.286,130.852 55.801,95.64 85.384,69.301C110.233,47.207 140.674,31.444 174.043,24.299C187.212,21.486 200.872,20.006 214.875,20.006C219.783,20.011 224.727,20.2 229.701,20.579C253.285,22.38 275.571,28.317 295.904,37.625C312.305,45.143 327.486,54.87 341.064,66.426C375.17,95.48 398.957,135.953 406.867,181.369C408.757,192.255 409.742,203.45 409.742,214.873C409.738,219.789 409.548,224.74 409.168,229.721C407.731,248.545 403.659,266.542 397.34,283.379C388.521,306.83 375.308,328.136 358.706,346.294C337.113,368.342 309.673,378.152 286.755,377.744C270.09,377.447 253.784,370.816 242.516,361.114C226.42,347.253 219.918,331.409 217.69,313.729C217.136,309.334 217.461,297.358 219.748,289.066C221.453,282.885 225.777,270.948 232.1,265.727C224.703,262.541 215.183,255.604 212.182,252.274C211.445,251.455 211.54,250.174 212.2,249.292C212.861,248.41 214.02,248.062 215.057,248.435C221.416,250.618 229.161,252.771 237.327,254.137C248.067,255.932 261.424,258.194 274.955,258.859C307.946,260.479 342.407,245.67 353.103,216.207C363.798,186.744 359.649,157.602 321.279,140.121C282.909,122.64 265.185,101.856 234.183,89.32C213.934,81.131 191.396,85.992 168.257,98.78C105.931,133.223 50.092,242.048 75.833,342.873C76.201,344.252 75.58,345.705 74.328,346.392C73.156,347.036 71.713,346.852 70.741,345.962C63.25,337.731 56.454,328.857 50.445,319.433C45.796,312.139 41.623,304.524 37.965,296.635Z"/>
    </g>
    <g id="outline" transform="matrix(0.0920293,0.00428099,-0.00428099,0.0920293,-28.1272,-500.301)">
        <path d="M3053.7,5296.9C4371.65,5296.9 5441.66,6366.91 5441.66,7684.86C5441.66,9002.81 4371.65,10072.8 3053.7,10072.8C1735.75,10072.8 665.74,9002.81 665.74,7684.86C665.74,6366.91 1735.75,5296.9 3053.7,5296.9ZM3745.03,8143.22C3594.12,8142.82 3444.31,8124.57 3323.87,8110.15C3232.29,8099.18 3144.99,8079.23 3073.1,8058.23C3061.36,8054.62 3048.65,8059.09 3041.75,8069.24C3034.86,8079.4 3034.46,8093.71 3043.09,8102.44C3078.21,8137.94 3187.74,8210.21 3271.7,8241.83C3204.04,8303.2 3162.1,8438.28 3146.33,8507.94C3125.17,8601.4 3127.75,8734.83 3136.19,8783.45C3170.14,8979.04 3250.69,9151.99 3436.99,9297.9C3567.4,9400.03 3752.28,9465.38 3937.88,9460.06C4194.01,9452.71 4495.48,9328.51 4724.65,9070.17C5023.25,8710.58 5208.52,8252.45 5223.47,7749.5C5259.08,6551.9 4315.7,5550.69 3118.1,5515.08C1920.51,5479.47 919.301,6422.86 883.689,7620.45C865.246,8240.66 1109.37,8808.21 1515.43,9216.2C1526.73,9227.39 1544.21,9229.43 1557.78,9221.14C1571.35,9212.85 1577.51,9196.36 1572.7,9181.2C1234.07,8072.55 1799.11,6832.64 2474.84,6417.1C2725.71,6262.82 2973.99,6197.06 3203.56,6277.7C3555.04,6401.15 3763.03,6623.26 4199.06,6797.93C4635.09,6972.59 4696.35,7294.74 4592.58,7628.14C4488.81,7961.54 4113,8144.17 3745.03,8143.22ZM2917.17,6442.51C2777.75,6459.97 2693.93,6637.44 2687.08,6749.42C2680.18,6861.39 2744.03,7042.7 2926.19,7030.63C3139.52,7016.49 3195.89,6830.7 3164.24,6654.94C3140.48,6522.94 3033.73,6427.9 2917.17,6442.51Z" style="fill:white;"/>
    </g>
    <g id="logotype" transform="matrix(1.01617,0,0,1.01617,-26.0794,-611.101)">
        <path d="M937.055,817.457C937.055,823.805 937.055,832.932 935.862,836.106L799.76,836.106C806.108,859.123 824.362,873.41 849.359,873.41C869.995,873.806 885.073,864.679 895.785,851.582L929.513,882.933C912.849,903.964 884.677,919.439 845.789,919.439C789.048,919.439 746.193,879.758 746.193,819.046C746.193,760.32 787.063,719.446 842.219,719.446C898.959,719.446 937.055,760.716 937.055,817.457ZM843.803,765.079C822.777,765.079 806.108,776.588 800.156,798.808L885.47,798.808C880.31,778.573 866.424,765.079 843.803,765.079ZM1073.55,719.446C1115.22,719.446 1144.18,741.671 1144.18,801.189L1144.18,916.265L1092.2,916.265L1092.2,814.283C1092.2,777.38 1079.11,765.876 1054.9,765.876C1028.72,765.876 1010.86,784.125 1010.86,818.65L1010.86,916.265L958.879,916.265L958.879,722.62L1010.86,722.62L1010.86,747.623L1011.65,747.623C1027.52,728.974 1049.75,719.446 1073.55,719.446ZM1266.4,919.439C1204.9,919.439 1163.63,877.376 1163.63,819.443C1163.63,761.509 1204.9,719.446 1266.4,719.446C1326.72,719.446 1369.57,759.924 1369.57,819.443C1369.57,878.961 1326.72,919.439 1266.4,919.439ZM1266.4,873.009C1294.57,873.009 1316.8,850.789 1316.8,819.443C1316.8,787.7 1295.37,765.876 1266.4,765.876C1236.24,765.876 1216.01,788.889 1216.01,819.443C1216.01,849.6 1237.04,873.009 1266.4,873.009ZM557.237,916.265L557.237,719.446L628.389,719.446C690.648,719.446 730.671,759.919 730.671,818.133C730.671,876.069 693.149,916.265 629.223,916.265L557.237,916.265ZM608.378,869.416L625.61,869.416C655.628,869.416 675.361,846.408 675.361,818.133C675.361,788.748 655.35,766.295 629.501,766.295L608.378,766.295L608.378,869.416Z" style="fill:white;"/>
    </g>
    <g id="eye" transform="matrix(7.12289,0.543899,-0.543899,7.12289,-4867.49,-1040.55)">
        <path d="M721.316,105.751C722.813,105.518 724.225,106.703 724.582,108.395C725.058,110.649 724.402,113.065 721.658,113.329C719.314,113.555 718.422,111.242 718.468,109.796C718.513,108.35 719.525,106.03 721.316,105.751Z"/>
    </g>
</svg>
