<svg
  width="100%"
  height="100%"
  viewBox="0 0 260 51"
  version="1.1"
  xmlns="http://www.w3.org/2000/svg"
  xmlns:xlink="http://www.w3.org/1999/xlink"
  xml:space="preserve"
  xmlns:serif="http://www.serif.com/"
  style="fill-rule: evenodd; clip-rule: evenodd; stroke-linejoin: round; stroke-miterlimit: 2"
>
  <g><g><g><path
          d="M55.276,38.171c-0.583,0 -1.027,-0.076 -1.331,-0.228c-0.304,-0.152 -0.456,-0.418 -0.456,-0.798c0,-0.279 0.114,-0.507 0.342,-0.685c0.228,-0.177 0.475,-0.348 0.741,-0.513c0.267,-0.165 0.507,-0.367 0.723,-0.608c0.215,-0.241 0.323,-0.551 0.323,-0.931l-0,-18.36c-0,-0.38 -0.108,-0.684 -0.323,-0.912c-0.216,-0.228 -0.456,-0.431 -0.723,-0.609c-0.266,-0.177 -0.513,-0.354 -0.741,-0.531c-0.228,-0.178 -0.342,-0.406 -0.342,-0.685c0,-0.38 0.152,-0.646 0.456,-0.798c0.304,-0.152 0.748,-0.228 1.331,-0.228l8.476,-0c2.103,-0 4.011,0.336 5.721,1.007c1.71,0.671 3.168,1.61 4.371,2.813c1.204,1.204 2.13,2.629 2.775,4.276c0.647,1.648 0.97,3.447 0.97,5.398c0,2.002 -0.336,3.776 -1.008,5.322c-0.671,1.546 -1.583,2.838 -2.737,3.877c-1.152,1.039 -2.521,1.831 -4.104,2.376c-1.584,0.545 -3.289,0.817 -5.113,0.817l-9.351,0Zm8.59,-2.167c1.116,0 2.199,-0.177 3.25,-0.531c1.052,-0.356 1.983,-0.919 2.795,-1.692c0.81,-0.773 1.463,-1.768 1.957,-2.984c0.494,-1.216 0.741,-2.686 0.741,-4.41c0,-1.9 -0.259,-3.586 -0.779,-5.056c-0.52,-1.469 -1.223,-2.717 -2.11,-3.744c-0.886,-1.026 -1.906,-1.805 -3.06,-2.337c-1.153,-0.532 -2.375,-0.798 -3.668,-0.798l-1.406,-0c-0.963,-0 -1.445,0.595 -1.445,1.786l0,18.018c0,1.166 0.507,1.748 1.52,1.748l2.205,0Z"
          style="fill: #f8f9fc; fill-rule: nonzero"
        /><path
          d="M95.703,32.545c0.229,0 0.419,0.076 0.571,0.228c0.151,0.153 0.228,0.368 0.228,0.647c-0,0.329 -0.089,0.658 -0.266,0.988c-0.533,1.216 -1.439,2.243 -2.718,3.079c-1.28,0.836 -2.794,1.254 -4.542,1.254c-1.521,0 -2.896,-0.241 -4.125,-0.722c-1.229,-0.482 -2.281,-1.153 -3.155,-2.015c-0.874,-0.861 -1.552,-1.894 -2.034,-3.098c-0.481,-1.204 -0.722,-2.54 -0.722,-4.01c-0,-1.495 0.241,-2.864 0.722,-4.105c0.482,-1.242 1.147,-2.319 1.996,-3.231c0.849,-0.913 1.869,-1.622 3.06,-2.129c1.191,-0.506 2.496,-0.76 3.915,-0.76c1.293,0 2.427,0.19 3.402,0.57c0.976,0.38 1.793,0.899 2.452,1.559c0.659,0.658 1.159,1.444 1.502,2.356c0.342,0.913 0.513,1.901 0.513,2.966c-0,0.81 -0.191,1.399 -0.57,1.767c-0.38,0.367 -1.001,0.551 -1.863,0.551l-10.568,-0c0.102,1.014 0.33,1.939 0.684,2.775c0.356,0.836 0.818,1.552 1.388,2.148c0.571,0.595 1.242,1.057 2.015,1.387c0.773,0.33 1.616,0.494 2.528,0.494c0.963,-0 1.793,-0.184 2.49,-0.551c0.696,-0.367 1.387,-0.906 2.071,-1.616c0.355,-0.355 0.697,-0.532 1.026,-0.532Zm-7.602,-11.973c-1.267,-0 -2.325,0.544 -3.174,1.634c-0.849,1.09 -1.337,2.572 -1.464,4.447l8.401,0c0.051,-0.126 0.082,-0.303 0.095,-0.531c0.013,-0.229 0.019,-0.419 0.019,-0.571c-0,-1.52 -0.304,-2.73 -0.912,-3.63c-0.608,-0.899 -1.597,-1.349 -2.965,-1.349Z"
          style="fill: #f8f9fc; fill-rule: nonzero"
        /><path
          d="M99.277,38.171c-1.166,0 -1.749,-0.329 -1.749,-0.988c-0,-0.279 0.114,-0.501 0.342,-0.666c0.228,-0.164 0.475,-0.335 0.742,-0.513c0.265,-0.177 0.506,-0.373 0.722,-0.589c0.215,-0.215 0.322,-0.513 0.322,-0.893l0,-10.681c0.026,-0.608 -0.151,-1.027 -0.531,-1.255c-0.583,-0.355 -1.027,-0.621 -1.331,-0.798c-0.304,-0.178 -0.456,-0.457 -0.456,-0.836c0,-0.228 0.184,-0.476 0.551,-0.742c0.368,-0.265 0.811,-0.519 1.331,-0.76c0.519,-0.24 1.057,-0.437 1.615,-0.589c0.558,-0.152 1.014,-0.228 1.368,-0.228c0.66,-0 1.09,0.145 1.293,0.437c0.203,0.291 0.317,0.754 0.342,1.388l0,1.748l0.152,-0c0.583,-1.064 1.381,-1.932 2.395,-2.604c1.014,-0.671 2.28,-1.007 3.801,-1.007c4.41,-0 6.614,2.496 6.614,7.488l-0,8.439c-0,0.38 0.114,0.678 0.343,0.893c0.228,0.216 0.474,0.412 0.741,0.589c0.266,0.178 0.507,0.349 0.722,0.513c0.215,0.165 0.323,0.387 0.323,0.666c0,0.659 -0.583,0.988 -1.749,0.988l-5.131,0c-1.166,0 -1.749,-0.329 -1.749,-0.988c0,-0.279 0.114,-0.501 0.342,-0.666c0.228,-0.164 0.475,-0.335 0.741,-0.513c0.267,-0.177 0.507,-0.373 0.723,-0.589c0.215,-0.215 0.323,-0.513 0.323,-0.893l-0,-7.679c-0,-3.345 -1.268,-5.017 -3.801,-5.017c-0.735,-0 -1.388,0.152 -1.958,0.456c-0.57,0.304 -1.052,0.716 -1.445,1.236c-0.392,0.519 -0.69,1.127 -0.893,1.824c-0.203,0.697 -0.304,1.451 -0.304,2.262l0,6.918c0,0.38 0.114,0.678 0.342,0.893c0.228,0.216 0.476,0.412 0.741,0.589c0.266,0.178 0.507,0.349 0.722,0.513c0.216,0.165 0.324,0.387 0.324,0.666c-0,0.659 -0.583,0.988 -1.749,0.988l-5.131,0Z"
          style="fill: #f8f9fc; fill-rule: nonzero"
        /><path
          d="M129.456,38.741c-1.52,0 -2.902,-0.241 -4.143,-0.722c-1.242,-0.482 -2.306,-1.153 -3.193,-2.015c-0.887,-0.861 -1.572,-1.894 -2.053,-3.098c-0.482,-1.204 -0.722,-2.515 -0.722,-3.934c-0,-1.521 0.273,-2.914 0.817,-4.181c0.545,-1.267 1.299,-2.357 2.262,-3.269c0.963,-0.913 2.09,-1.622 3.383,-2.129c1.293,-0.507 2.673,-0.76 4.143,-0.76c1.419,-0 2.744,0.228 3.972,0.684c1.23,0.456 2.301,1.102 3.213,1.939c0.912,0.836 1.628,1.856 2.148,3.06c0.519,1.203 0.779,2.553 0.779,4.048c-0,1.52 -0.266,2.914 -0.799,4.181c-0.532,1.267 -1.267,2.357 -2.204,3.27c-0.938,0.912 -2.06,1.628 -3.365,2.147c-1.305,0.52 -2.718,0.779 -4.238,0.779Zm1.027,-2.128c1.495,-0 2.647,-0.57 3.459,-1.711c0.811,-1.14 1.216,-2.686 1.216,-4.637c0,-1.116 -0.133,-2.243 -0.399,-3.384c-0.266,-1.14 -0.659,-2.166 -1.179,-3.078c-0.519,-0.913 -1.165,-1.66 -1.938,-2.243c-0.773,-0.583 -1.666,-0.874 -2.68,-0.874c-1.571,-0 -2.743,0.576 -3.516,1.729c-0.773,1.153 -1.16,2.68 -1.16,4.58c0,1.116 0.134,2.244 0.399,3.384c0.267,1.14 0.653,2.172 1.16,3.098c0.507,0.925 1.153,1.678 1.939,2.261c0.786,0.583 1.685,0.875 2.699,0.875Z"
          style="fill: #f8f9fc; fill-rule: nonzero"
        /></g><g><path
          d="M146.181,38.021c-0.583,0 -1.026,-0.075 -1.33,-0.228c-0.304,-0.152 -0.456,-0.418 -0.456,-0.798c-0,-0.279 0.114,-0.507 0.342,-0.684c0.228,-0.177 0.475,-0.348 0.741,-0.513c0.266,-0.165 0.507,-0.368 0.723,-0.609c0.215,-0.24 0.322,-0.551 0.322,-0.931l0,-18.359c0,-0.381 -0.107,-0.685 -0.322,-0.913c-0.216,-0.228 -0.457,-0.431 -0.723,-0.608c-0.266,-0.177 -0.513,-0.355 -0.741,-0.532c-0.228,-0.178 -0.342,-0.406 -0.342,-0.685c-0,-0.379 0.152,-0.646 0.456,-0.798c0.304,-0.152 0.747,-0.228 1.33,-0.228l8.477,0c2.103,0 4.011,0.336 5.721,1.007c1.71,0.672 3.168,1.61 4.371,2.814c1.204,1.203 2.129,2.628 2.775,4.275c0.646,1.648 0.969,3.447 0.969,5.398c0,2.003 -0.336,3.776 -1.007,5.322c-0.671,1.546 -1.584,2.838 -2.737,3.878c-1.153,1.038 -2.521,1.83 -4.105,2.375c-1.584,0.545 -3.288,0.817 -5.113,0.817l-9.351,0Zm8.591,-2.166c1.115,-0 2.199,-0.177 3.25,-0.532c1.052,-0.356 1.983,-0.919 2.794,-1.692c0.811,-0.773 1.463,-1.768 1.957,-2.984c0.495,-1.216 0.742,-2.686 0.742,-4.41c0,-1.9 -0.26,-3.585 -0.779,-5.055c-0.52,-1.47 -1.223,-2.718 -2.11,-3.744c-0.887,-1.026 -1.907,-1.806 -3.06,-2.338c-1.153,-0.532 -2.376,-0.798 -3.668,-0.798l-1.406,-0c-0.963,-0 -1.445,0.595 -1.445,1.786l0,18.018c0,1.166 0.506,1.749 1.52,1.749l2.205,-0Z"
          style="fill: #f8f9fc; fill-rule: nonzero"
        /><path
          d="M186.699,32.396c0.228,-0 0.419,0.075 0.57,0.228c0.152,0.152 0.228,0.367 0.228,0.646c0,0.329 -0.088,0.659 -0.265,0.988c-0.533,1.216 -1.439,2.243 -2.718,3.079c-1.281,0.837 -2.794,1.254 -4.543,1.254c-1.52,0 -2.895,-0.24 -4.124,-0.722c-1.23,-0.481 -2.281,-1.153 -3.156,-2.014c-0.873,-0.862 -1.551,-1.895 -2.033,-3.099c-0.481,-1.203 -0.722,-2.54 -0.722,-4.01c-0,-1.495 0.241,-2.863 0.722,-4.105c0.482,-1.242 1.147,-2.319 1.996,-3.231c0.849,-0.912 1.869,-1.622 3.06,-2.129c1.191,-0.506 2.496,-0.76 3.915,-0.76c1.292,0 2.426,0.19 3.402,0.57c0.976,0.381 1.793,0.9 2.452,1.559c0.659,0.658 1.159,1.444 1.501,2.356c0.342,0.913 0.513,1.901 0.513,2.966c0,0.811 -0.19,1.399 -0.57,1.767c-0.38,0.367 -1.001,0.551 -1.862,0.551l-10.568,0c0.102,1.014 0.33,1.939 0.684,2.775c0.355,0.836 0.818,1.553 1.388,2.148c0.57,0.596 1.242,1.058 2.014,1.388c0.774,0.329 1.616,0.493 2.529,0.493c0.963,0 1.792,-0.184 2.489,-0.55c0.697,-0.368 1.387,-0.906 2.072,-1.617c0.355,-0.354 0.697,-0.531 1.026,-0.531Zm-7.603,-11.974c-1.266,-0 -2.325,0.544 -3.174,1.634c-0.848,1.09 -1.336,2.573 -1.463,4.448l8.401,-0c0.051,-0.127 0.082,-0.304 0.095,-0.532c0.013,-0.229 0.019,-0.419 0.019,-0.571c-0,-1.52 -0.304,-2.73 -0.912,-3.63c-0.608,-0.899 -1.597,-1.349 -2.966,-1.349Z"
          style="fill: #f8f9fc; fill-rule: nonzero"
        /><path
          d="M193.389,45.358c-0.481,0.076 -0.976,0.139 -1.482,0.19c-0.507,0.051 -0.97,0.063 -1.387,0.038c-0.419,-0.026 -0.761,-0.101 -1.027,-0.228c-0.266,-0.127 -0.399,-0.342 -0.399,-0.647c-0,-0.202 0.051,-0.354 0.152,-0.456c0.101,-0.101 0.291,-0.291 0.57,-0.57c0.254,-0.253 0.419,-0.551 0.494,-0.893c0.076,-0.342 0.114,-0.919 0.114,-1.729l0,-16.878c0,-0.431 -0.057,-0.786 -0.171,-1.065c-0.114,-0.278 -0.31,-0.519 -0.589,-0.722c-0.532,-0.405 -0.931,-0.678 -1.197,-0.817c-0.266,-0.139 -0.399,-0.399 -0.399,-0.779c-0,-0.279 0.184,-0.558 0.551,-0.836c0.367,-0.279 0.811,-0.527 1.33,-0.742c0.52,-0.215 1.071,-0.392 1.654,-0.532c0.582,-0.139 1.089,-0.209 1.52,-0.209c0.406,0 0.742,0.12 1.008,0.361c0.265,0.241 0.399,0.628 0.399,1.159l-0,0.913l0.114,0c0.658,-0.735 1.52,-1.33 2.584,-1.786c1.065,-0.457 2.193,-0.685 3.384,-0.685c1.292,-0 2.49,0.222 3.592,0.665c1.102,0.444 2.052,1.09 2.851,1.939c0.798,0.849 1.425,1.888 1.882,3.117c0.456,1.229 0.684,2.629 0.684,4.201c-0,1.469 -0.222,2.825 -0.666,4.067c-0.443,1.241 -1.064,2.318 -1.863,3.231c-0.798,0.912 -1.754,1.628 -2.869,2.147c-1.115,0.52 -2.345,0.779 -3.687,0.779c-1.318,0 -2.44,-0.183 -3.365,-0.551c-0.924,-0.367 -1.716,-0.829 -2.375,-1.387l0,4.371c0,0.431 0.101,0.767 0.304,1.008c0.202,0.24 0.443,0.424 0.722,0.551c0.329,0.177 0.627,0.31 0.893,0.399c0.267,0.088 0.399,0.298 0.399,0.627c0,0.253 -0.107,0.469 -0.323,0.646c-0.215,0.178 -0.5,0.336 -0.855,0.476c-0.355,0.139 -0.754,0.259 -1.198,0.361c-0.443,0.101 -0.893,0.189 -1.349,0.266Zm6.728,-8.743c1.445,0 2.573,-0.564 3.384,-1.692c0.81,-1.127 1.242,-2.717 1.292,-4.77c-0,-1.216 -0.133,-2.395 -0.399,-3.535c-0.266,-1.14 -0.647,-2.148 -1.141,-3.022c-0.493,-0.875 -1.083,-1.571 -1.767,-2.091c-0.685,-0.519 -1.444,-0.779 -2.281,-0.779c-0.532,-0 -1.058,0.101 -1.578,0.304c-0.519,0.203 -0.987,0.519 -1.406,0.95c-0.418,0.431 -0.76,0.963 -1.026,1.596c-0.266,0.634 -0.399,1.382 -0.399,2.244l0,4.257c0,0.786 0.139,1.565 0.418,2.337c0.279,0.774 0.652,1.47 1.121,2.091c0.469,0.621 1.027,1.128 1.673,1.521c0.646,0.393 1.349,0.589 2.109,0.589Z"
          style="fill: #f8f9fc; fill-rule: nonzero"
        /><path
          d="M212.015,38.021c-1.165,0 -1.749,-0.329 -1.749,-0.988c0,-0.278 0.115,-0.5 0.343,-0.665c0.228,-0.165 0.475,-0.336 0.741,-0.513c0.266,-0.177 0.507,-0.374 0.722,-0.59c0.216,-0.215 0.324,-0.513 0.324,-0.893l-0,-19.31c-0,-0.456 -0.064,-0.817 -0.191,-1.083c-0.127,-0.267 -0.329,-0.513 -0.608,-0.741c-0.506,-0.381 -0.893,-0.64 -1.159,-0.78c-0.266,-0.139 -0.4,-0.387 -0.4,-0.741c0,-0.279 0.21,-0.539 0.628,-0.78c0.418,-0.24 0.912,-0.462 1.482,-0.665c0.571,-0.202 1.134,-0.361 1.692,-0.475c0.557,-0.114 0.988,-0.171 1.292,-0.171c0.634,0 1.059,0.159 1.274,0.475c0.215,0.317 0.335,0.779 0.361,1.388l-0,22.883c-0,0.38 0.114,0.678 0.342,0.893c0.228,0.216 0.475,0.413 0.741,0.59c0.267,0.177 0.507,0.348 0.723,0.513c0.215,0.165 0.323,0.387 0.323,0.665c-0,0.659 -0.584,0.988 -1.749,0.988l-5.132,0Z"
          style="fill: #f8f9fc; fill-rule: nonzero"
        /><path
          d="M229.577,38.591c-1.521,0 -2.901,-0.24 -4.143,-0.722c-1.242,-0.481 -2.307,-1.153 -3.193,-2.014c-0.887,-0.862 -1.571,-1.895 -2.053,-3.099c-0.481,-1.203 -0.722,-2.514 -0.722,-3.933c-0,-1.521 0.272,-2.915 0.817,-4.182c0.545,-1.267 1.299,-2.357 2.262,-3.269c0.963,-0.913 2.091,-1.622 3.383,-2.128c1.292,-0.507 2.674,-0.761 4.143,-0.761c1.419,0 2.743,0.228 3.973,0.684c1.228,0.456 2.299,1.103 3.211,1.939c0.913,0.836 1.628,1.856 2.148,3.06c0.52,1.204 0.779,2.553 0.779,4.048c0,1.521 -0.266,2.914 -0.798,4.182c-0.532,1.266 -1.267,2.356 -2.205,3.269c-0.937,0.912 -2.058,1.628 -3.363,2.147c-1.306,0.52 -2.718,0.779 -4.239,0.779Zm1.026,-2.128c1.495,-0 2.649,-0.57 3.459,-1.711c0.811,-1.14 1.217,-2.686 1.217,-4.637c-0,-1.115 -0.134,-2.243 -0.399,-3.383c-0.266,-1.14 -0.659,-2.167 -1.178,-3.079c-0.52,-0.913 -1.167,-1.66 -1.939,-2.243c-0.773,-0.583 -1.667,-0.874 -2.68,-0.874c-1.571,-0 -2.743,0.577 -3.517,1.729c-0.772,1.153 -1.158,2.68 -1.158,4.581c-0,1.115 0.132,2.243 0.399,3.383c0.265,1.14 0.652,2.173 1.159,3.098c0.506,0.925 1.153,1.679 1.938,2.261c0.786,0.583 1.685,0.875 2.699,0.875Z"
          style="fill: #f8f9fc; fill-rule: nonzero"
        /><path
          d="M245.166,45.586c-1.444,-0 -2.591,-0.285 -3.44,-0.855c-0.849,-0.571 -1.274,-1.236 -1.274,-1.996c0,-0.709 0.197,-1.223 0.589,-1.54c0.393,-0.316 0.83,-0.475 1.312,-0.475c0.355,-0 0.652,0.115 0.893,0.343c0.241,0.228 0.488,0.474 0.741,0.741c0.254,0.266 0.551,0.507 0.893,0.722c0.343,0.215 0.78,0.323 1.312,0.323c0.533,0 1.039,-0.152 1.52,-0.456c0.482,-0.304 0.939,-0.722 1.369,-1.255c0.431,-0.532 0.842,-1.159 1.235,-1.881c0.393,-0.723 0.767,-1.502 1.122,-2.338c-0.127,0.051 -0.241,0.082 -0.342,0.095c-0.102,0.013 -0.241,0.019 -0.418,0.019c-1.09,-0 -1.97,-0.234 -2.642,-0.703c-0.672,-0.469 -1.236,-1.147 -1.692,-2.034c-0.38,-0.76 -0.779,-1.634 -1.197,-2.623c-0.418,-0.988 -0.837,-2.014 -1.254,-3.078c-0.419,-1.065 -0.837,-2.136 -1.255,-3.213c-0.418,-1.077 -0.818,-2.084 -1.197,-3.021c-0.127,-0.279 -0.305,-0.507 -0.533,-0.685c-0.228,-0.177 -0.45,-0.342 -0.665,-0.494c-0.215,-0.152 -0.405,-0.323 -0.57,-0.513c-0.165,-0.19 -0.247,-0.438 -0.247,-0.741c-0,-0.431 0.152,-0.691 0.456,-0.78c0.304,-0.088 0.747,-0.132 1.331,-0.132l5.701,-0c0.684,-0 1.134,0.069 1.35,0.208c0.215,0.14 0.323,0.387 0.323,0.742c-0,0.278 -0.114,0.5 -0.342,0.665c-0.228,0.164 -0.476,0.31 -0.741,0.437c-0.266,0.126 -0.501,0.279 -0.704,0.456c-0.202,0.177 -0.266,0.418 -0.189,0.723c0.177,0.582 0.399,1.292 0.664,2.128c0.266,0.836 0.551,1.704 0.856,2.604c0.304,0.899 0.614,1.787 0.931,2.66c0.317,0.875 0.615,1.641 0.894,2.301c0.202,0.456 0.436,0.861 0.702,1.216c0.267,0.355 0.615,0.532 1.046,0.532c0.43,-0 0.823,-0.19 1.178,-0.57c0.355,-0.38 0.735,-1.128 1.141,-2.243c0.355,-0.963 0.69,-1.945 1.007,-2.946c0.317,-1.001 0.475,-1.831 0.475,-2.49c-0,-0.582 -0.05,-1.071 -0.152,-1.463c-0.102,-0.393 -0.216,-0.748 -0.342,-1.064c-0.126,-0.317 -0.241,-0.641 -0.342,-0.97c-0.102,-0.329 -0.152,-0.722 -0.152,-1.178c0,-0.735 0.253,-1.312 0.76,-1.73c0.507,-0.418 1.166,-0.627 1.977,-0.627c0.811,0 1.444,0.203 1.9,0.609c0.456,0.405 0.684,1.013 0.684,1.824c0,0.633 -0.189,1.317 -0.57,2.052c-0.38,0.735 -0.709,1.597 -0.988,2.586c-0.329,1.038 -0.621,1.919 -0.875,2.641c-0.252,0.722 -0.557,1.565 -0.912,2.528c-0.507,1.444 -1.083,2.844 -1.729,4.2c-0.647,1.356 -1.274,2.63 -1.882,3.821c-0.532,1.039 -1.051,1.983 -1.558,2.831c-0.507,0.849 -1.058,1.578 -1.653,2.186c-0.597,0.609 -1.255,1.077 -1.977,1.407c-0.723,0.329 -1.565,0.494 -2.528,0.494Z"
          style="fill: #f8f9fc; fill-rule: nonzero"
        /></g></g></g><g><path
      d="M3.585,17.901c1.917,-8.468 7.153,-14.495 13.201,-16.786c8.741,-3.302 16.576,1.154 17.895,7.804c3.25,2.977 6.891,7.753 8.121,14.518c1.132,6.218 0.336,13.484 -3.939,18.987c1.279,0.261 2.305,0.579 2.958,0.952c0.283,0.161 0.52,0.333 0.711,0.508l0.436,0.511l0.28,0.575l0.119,0.683l-0.037,0.452l-0.12,0.428l-0.398,0.689c-0.306,0.383 -0.813,0.774 -1.53,1.112c-2.982,1.382 -11.118,2.184 -17.475,2.176c-1.545,0.001 -2.916,-0.09 -4.101,-0.262l-0.01,-0c-8.927,-1.134 -15.902,-8.184 -18.053,-13.803c-2.591,-6.774 -1.59,-14.646 -0.561,-17.313l0.032,-0.084c0.7,-2.514 1.348,-2.067 2.471,-1.147Z"
      style="fill: #f8f9fc"
    /></g><g><g><path
        d="M19.919,48.575c-8.252,-1.038 -14.715,-7.543 -16.701,-12.739c-2.409,-6.294 -1.52,-13.62 -0.564,-16.09c0.06,-0.122 0.17,-0.201 0.298,-0.226c0.129,-0.025 0.26,0.015 0.358,0.102c0.445,0.365 0.954,0.689 1.492,0.976c1.289,-9.053 6.442,-15.581 12.579,-17.904c7.828,-2.956 14.927,1.012 15.735,7.09c3.14,2.742 6.822,7.333 8.027,13.952c1.213,6.674 0.106,14.671 -5.697,19.899c3.534,0.345 6.211,0.997 6.234,2.053c0.044,2.055 -10.256,3.135 -17.873,3.141c-1.466,-0.003 -2.766,-0.096 -3.888,-0.254Z"
        style="fill: #002633"
      /></g><g><path
        d="M16.682,16.426c-0.032,-0 -0.061,0.009 -0.087,0.024c-2.562,1.578 -3.306,8.184 -3.35,10.809c0.001,0.093 -0.037,0.182 -0.103,0.248c-0.068,0.061 -0.158,0.096 -0.251,0.088c-2.287,-0.184 -6.377,-1.488 -7.741,-2.625c-0.04,-0.042 -0.094,-0.052 -0.145,-0.035c-0.05,0.017 -0.086,0.062 -0.09,0.118c-0.218,2.44 0.087,6.868 1.965,10.16c1.951,3.421 8.187,9.671 18.078,7.977c9.892,-1.694 13.239,-10.704 12.901,-16.661c-0.324,-5.715 -2.663,-9.808 -4.686,-11.84c-0.049,-0.045 -0.123,-0.064 -0.186,-0.038c-0.066,0.022 -0.111,0.081 -0.119,0.149c-0.444,2.538 -3.218,7.35 -5.167,7.996c-0.132,0.028 -0.27,-0.026 -0.346,-0.137c-1.863,-2.612 -6.833,-6.409 -10.673,-6.233Z"
        style="fill: #fefdf0"
      /></g><g><ellipse
        cx="20.357"
        cy="9.015"
        rx="1.558"
        ry="1.951"
        style="fill: #fff"
      /></g><g><ellipse
        cx="27.542"
        cy="9.015"
        rx="1.558"
        ry="1.951"
        style="fill: #fff"
      /></g></g>
</svg>
