<?xml version="1.0" encoding="UTF-8" standalone="no"?><!DOCTYPE svg PUBLIC "-//W3C//DTD SVG 1.1//EN" "http://www.w3.org/Graphics/SVG/1.1/DTD/svg11.dtd"><svg width="100%" height="100%" viewBox="0 0 1366 441" version="1.1" xmlns="http://www.w3.org/2000/svg" xmlns:xlink="http://www.w3.org/1999/xlink" xml:space="preserve" xmlns:serif="http://www.serif.com/" style="fill-rule:evenodd;clip-rule:evenodd;stroke-linejoin:round;stroke-miterlimit:2;"><g id="outline"><path d="M230.227,0.242c121.29,5.642 215.181,108.695 209.539,229.985c-5.642,121.29 -108.695,215.18 -229.985,209.538c-121.29,-5.643 -215.182,-108.694 -209.539,-229.984c5.642,-121.29 108.695,-215.181 229.985,-209.539Zm51.437,264.904c-13.886,-0.683 -27.595,-3.003 -38.617,-4.846c-8.381,-1.402 -16.33,-3.611 -22.856,-5.852c-1.065,-0.382 -2.254,-0.025 -2.932,0.879c-0.678,0.906 -0.776,2.221 -0.019,3.061c3.08,3.418 12.85,10.538 20.442,13.807c-6.49,5.358 -10.928,17.61 -12.677,23.953c-2.347,8.511 -2.681,20.801 -2.113,25.312c2.287,18.145 8.96,34.406 25.48,48.632c11.565,9.957 28.299,16.763 45.403,17.068c23.603,0.42 51.878,-9.72 74.075,-32.513c29.019,-31.815 48.031,-73.183 51.56,-119.405c8.404,-110.062 -74.129,-206.241 -184.191,-214.645c-110.061,-8.405 -206.24,74.129 -214.644,184.19c-4.352,56.998 15.684,110.275 51.307,149.56c0.992,1.078 2.592,1.341 3.877,0.636c1.284,-0.705 1.921,-2.196 1.544,-3.612c-26.418,-103.478 30.89,-215.167 94.856,-250.516c23.748,-13.124 46.878,-18.113 67.66,-9.709c31.818,12.865 50.009,34.196 89.388,52.138c39.38,17.94 43.639,47.85 32.662,78.088c-10.977,30.239 -46.345,45.437 -80.205,43.774Zm-68.906,-160.059c-12.906,1.01 -21.38,16.984 -22.489,27.26c-1.115,10.275 3.985,27.234 20.801,26.903c19.693,-0.388 25.676,-17.245 23.516,-33.555c-1.622,-12.25 -11.039,-21.453 -21.828,-20.608Z" style="fill:#fff;"/></g><g id="logotype"><path d="M926.128,219.574c-0,6.451 -0,15.726 -1.213,18.951l-138.302,-0c6.45,23.389 25,37.907 50.401,37.907c20.969,0.402 36.291,-8.872 47.176,-22.181l34.274,31.858c-16.934,21.371 -45.561,37.096 -85.078,37.096c-57.658,0 -101.206,-40.322 -101.206,-102.016c-0,-59.676 41.53,-101.211 97.578,-101.211c57.658,0 96.37,41.938 96.37,99.596Zm-94.76,-53.225c-21.366,0 -38.305,11.695 -44.353,34.275l86.694,-0c-5.244,-20.562 -19.354,-34.275 -42.341,-34.275Zm233.462,-46.371c42.344,0 71.772,22.585 71.772,83.065l-0,116.937l-52.821,0l0,-103.631c0,-37.5 -13.301,-49.19 -37.903,-49.19c-26.603,0 -44.752,18.544 -44.752,53.628l0,99.193l-52.821,0l-0,-196.776l52.821,-0l0,25.407l0.803,0c16.127,-18.95 38.716,-28.633 62.901,-28.633Zm195.968,203.227c-62.494,0 -104.432,-42.743 -104.432,-101.613c0,-58.87 41.938,-101.614 104.432,-101.614c61.296,0 104.839,41.133 104.839,101.614c-0,60.481 -43.543,101.613 -104.839,101.613Zm0,-47.18c28.626,-0 51.215,-22.58 51.215,-54.433c0,-32.256 -21.776,-54.433 -51.215,-54.433c-30.647,0 -51.205,23.385 -51.205,54.433c0,30.645 21.371,54.433 51.205,54.433Zm-720.63,43.955l0,-200.002l72.303,0c63.265,0 103.936,41.128 103.936,100.283c-0,58.873 -38.129,99.719 -103.089,99.719l-73.15,0Zm51.968,-47.607l17.511,0c30.503,0 50.555,-23.38 50.555,-52.112c0,-29.86 -20.334,-52.676 -46.601,-52.676l-21.465,-0l0,104.788Z" style="fill:#fff;"/></g><g id="eye"></g></svg>