<svg
  width="100%"
  height="100%"
  viewBox="0 0 72 84"
  version="1.1"
  xmlns="http://www.w3.org/2000/svg"
  xmlns:xlink="http://www.w3.org/1999/xlink"
  xml:space="preserve"
  xmlns:serif="http://www.serif.com/"
  style="fill-rule: evenodd; clip-rule: evenodd; stroke-linejoin: round; stroke-miterlimit: 2"
>
  <g id="mark" transform="matrix(1,0,0,1,-50.572,-29.1291)">
    <g
      transform="matrix(1.72812,-0.0826725,0.0779743,1.62991,-1298.44,-2722.51)"
    >
      <path
        d="M719.275,1775.86C710.852,1774.3 704.535,1766.88 702.75,1761.12C700.585,1754.14 701.858,1746.21 702.962,1743.57C703.029,1743.44 703.146,1743.36 703.279,1743.34C703.412,1743.32 703.545,1743.37 703.641,1743.47C704.08,1743.89 704.587,1744.27 705.126,1744.61C706.894,1734.82 712.507,1727.98 718.924,1725.77C727.108,1722.96 734.203,1727.65 734.734,1734.31C737.824,1737.46 741.38,1742.65 742.292,1749.92C743.211,1757.25 741.681,1765.9 735.464,1771.29C739.076,1771.85 741.793,1772.7 741.765,1773.85C741.71,1776.09 731.079,1776.73 723.256,1776.34C721.751,1776.26 720.42,1776.09 719.275,1775.86Z"
        style="fill: rgb(0, 38, 51)"
      />
    </g>
    <g
      transform="matrix(-0.878689,0.291246,0.291246,0.878689,-351.327,-1631.65)"
    >
      <path
        d="M133.881,1875.51C133.938,1875.49 133.998,1875.49 134.055,1875.5C139.681,1876.83 145.032,1888.43 146.698,1893.19C146.754,1893.36 146.876,1893.5 147.037,1893.58C147.197,1893.65 147.382,1893.66 147.548,1893.59C151.609,1891.87 158.28,1887.02 160.081,1884.12C160.127,1884.02 160.221,1883.97 160.324,1883.97C160.426,1883.97 160.518,1884.03 160.559,1884.13C162.432,1888.45 164.552,1896.71 163.118,1903.85C161.628,1911.27 154.031,1926.44 134.966,1929.33C115.9,1932.22 104.348,1917.81 101.362,1906.74C98.499,1896.12 100.29,1887.24 102.752,1882.31C102.814,1882.2 102.936,1882.12 103.068,1882.13C103.2,1882.13 103.319,1882.21 103.375,1882.33C105.718,1886.69 113.688,1893.79 117.633,1893.79C117.892,1893.76 118.109,1893.58 118.182,1893.33C120.001,1887.44 126.769,1877.51 133.881,1875.51Z"
        style="fill: rgb(254, 253, 240)"
      />
    </g>
    <g
      transform="matrix(1.52104,-1.38778e-17,-2.77556e-17,1.90463,-1007,-3272.46)"
    >
      <circle cx="717.144" cy="1740.29" r="1.822" style="fill: white" />
    </g>
    <g
      transform="matrix(1.52104,-1.38778e-17,-2.77556e-17,1.90463,-994.218,-3272.46)"
    >
      <circle cx="717.144" cy="1740.29" r="1.822" style="fill: white" />
    </g>
  </g>
</svg>
